<?xml version="1.0" standalone="no"?>
<!DOCTYPE svg PUBLIC "-//W3C//DTD SVG 1.1//EN" "http://www.w3.org/Graphics/SVG/1.1/DTD/svg11.dtd" >
<svg>
<metadata>
Created by FontForge 20090622 at Fri May 20 21:54:31 2016
 By deploy user
Copyright (c) 2006-2012 by Jovanny Lemonad (jovanny.ru), with Reserved Font Name "Cuprum"
</metadata>
<defs>
<font id="Cuprum-Bold" horiz-adv-x="475" >
  <font-face 
    font-family="Cuprum"
    font-weight="700"
    font-stretch="normal"
    units-per-em="1000"
    panose-1="2 0 8 6 0 0 0 2 0 4"
    ascent="800"
    descent="-200"
    x-height="500"
    cap-height="700"
    bbox="-70 -220 1025 895"
    underline-thickness="50"
    underline-position="-50"
    unicode-range="U+0020-U+2122"
  />
<missing-glyph horiz-adv-x="250" 
 />
    <glyph glyph-name=".notdef" horiz-adv-x="250" 
 />
    <glyph glyph-name="NULL" horiz-adv-x="0" 
 />
    <glyph glyph-name="nonmarkingreturn" horiz-adv-x="333" 
 />
    <glyph glyph-name="space" unicode=" " horiz-adv-x="250" 
 />
    <glyph glyph-name="exclam" unicode="!" horiz-adv-x="260" 
d="M80 185l-20 515h140l-20 -515h-100zM190 110v-120h-120v120h120z" />
    <glyph glyph-name="quotedbl" unicode="&#x22;" horiz-adv-x="370" 
d="M40 700h120l-25 -235h-70zM210 700h120l-25 -235h-70z" />
    <glyph glyph-name="numbersign" unicode="#" horiz-adv-x="590" 
d="M430 195l-30 -195h-115l30 195h-90l-30 -195h-115l30 195h-90v80h104l23 150h-97v80h110l30 195h115l-30 -195h90l30 195h115l-30 -195h90v-80h-104l-23 -150h97v-80h-110zM228 275h111l23 150h-111z" />
    <glyph glyph-name="dollar" unicode="$" horiz-adv-x="465" 
d="M30 530q0 75 42.5 122.5t127.5 55.5v82h70v-81q41 -2 73.5 -7.5t51.5 -11.5v-55h-125v-243q29 -14 58.5 -30t53 -39.5t38.5 -57.5t15 -85q0 -76 -38.5 -123t-126.5 -61v-86h-70v80h-5q-53 0 -95 6t-65 14v55h140h13t12 1v242q-30 14 -60 30t-54.5 41t-40 61t-15.5 90z
M150 530q0 -35 13.5 -58t36.5 -40v191q-50 -27 -50 -93zM315 180q0 31 -12.5 52t-32.5 37v-184q45 28 45 95z" />
    <glyph glyph-name="percent" unicode="%" horiz-adv-x="720" 
d="M615 700l-390 -700h-120l390 700h120zM180 640q-23 0 -39 -19t-16 -61t16 -61t39 -19t39 19t16 61t-16 61t-39 19zM180 710q72 0 113.5 -41t41.5 -109t-41.5 -109t-113.5 -41t-113.5 41t-41.5 109t41.5 109t113.5 41zM540 220q-23 0 -39 -19t-16 -61t16 -61t39 -19t39 19
t16 61t-16 61t-39 19zM540 290q72 0 113.5 -41t41.5 -109t-41.5 -109t-113.5 -41t-113.5 41t-41.5 109t41.5 109t113.5 41z" />
    <glyph glyph-name="ampersand" unicode="&#x26;" horiz-adv-x="545" 
d="M240 530q0 -26 3.5 -51t14.5 -55t30.5 -66t51.5 -83l45 115h120l-90 -220l120 -170h-130l-47 68q-26 -39 -59 -58.5t-89 -19.5q-79 0 -127 49.5t-48 140.5q0 45 6 86t14 64h95v-150q0 -36 6.5 -58t16.5 -35t21.5 -17.5t20.5 -4.5q23 0 44 23t36 72q-51 71 -84.5 124
t-53.5 95t-28.5 77.5t-8.5 73.5q0 83 49 131.5t136 48.5q53 0 95 -6t65 -14v-55h-140q-34 0 -59.5 -28t-25.5 -77z" />
    <glyph glyph-name="quotesingle" unicode="'" horiz-adv-x="200" 
d="M40 700h120l-25 -235h-70z" />
    <glyph glyph-name="parenleft" unicode="(" horiz-adv-x="266" 
d="M180 280q0 -64 5 -121t15.5 -110.5t26.5 -105t39 -103.5l-56 -30q-45 56 -75.5 118.5t-49.5 124t-27 120t-8 107.5t8 107.5t27 120t49.5 124t75.5 118.5l56 -30q-23 -53 -39 -104t-26.5 -104.5t-15.5 -110.5t-5 -121z" />
    <glyph glyph-name="parenright" unicode=")" horiz-adv-x="266" 
d="M86 280q0 64 -5 121t-15.5 110.5t-26.5 104.5t-39 104l56 30q45 -56 75.5 -118.5t49.5 -124t27 -120t8 -107.5t-8 -107.5t-27 -120t-49.5 -124t-75.5 -118.5l-56 30q23 52 39 103.5t26.5 105t15.5 110.5t5 121z" />
    <glyph glyph-name="asterisk" unicode="*" horiz-adv-x="450" 
d="M275 700v-137l133 29l22 -92l-119 -26l62 -117l-86 -47l-62 118l-62 -118l-86 47l62 117l-119 26l22 92l133 -29v137h100z" />
    <glyph glyph-name="plus" unicode="+" horiz-adv-x="450" 
d="M270 510v-170h150v-80h-150v-170h-90v170h-150v80h150v170h90z" />
    <glyph glyph-name="comma" unicode="," horiz-adv-x="195" 
d="M40 110h120l-40 -230h-80v230z" />
    <glyph glyph-name="hyphen" unicode="-" horiz-adv-x="380" 
d="M30 340h320v-80h-320v80z" />
    <glyph glyph-name="period" unicode="." horiz-adv-x="200" 
d="M160 110v-120h-120v120h120z" />
    <glyph glyph-name="slash" unicode="/" horiz-adv-x="420" 
d="M420 700l-300 -700h-120l300 700h120z" />
    <glyph glyph-name="zero" unicode="0" horiz-adv-x="530" 
d="M45 350q0 101 16 170t45 111t69.5 60.5t89.5 18.5t89.5 -18.5t69.5 -60.5t45 -111t16 -170t-16 -170t-45 -111t-69.5 -60.5t-89.5 -18.5t-89.5 18.5t-69.5 60.5t-45 111t-16 170zM365 350q0 88 -9.5 144.5t-24 88.5t-32 44.5t-34.5 12.5t-34.5 -12.5t-32 -44.5t-24 -88.5
t-9.5 -144.5t9.5 -144.5t24 -88.5t32 -44.5t34.5 -12.5t34.5 12.5t32 44.5t24 88.5t9.5 144.5z" />
    <glyph glyph-name="one" unicode="1" horiz-adv-x="305" 
d="M235 700v-700h-120v620h-105v60q23 8 65 14t95 6h65z" />
    <glyph glyph-name="two" unicode="2" horiz-adv-x="420" 
d="M15 90l115.5 134.5t79.5 104.5t45.5 87.5t14.5 83.5q0 72 -28 103.5t-77 31.5h-140v55q23 8 65 14t95 6q205 0 205 -210q0 -47 -20 -96t-55 -101t-81.5 -107.5l-98.5 -115.5h250v-80h-370v90z" />
    <glyph glyph-name="three" unicode="3" horiz-adv-x="435" 
d="M185 710q94 0 144.5 -49t50.5 -136q0 -57 -26.5 -94.5t-68.5 -58.5v-4q26 -9 47.5 -26.5t36.5 -41t23 -52t8 -58.5q0 -98 -54 -149t-171 -51q-53 0 -95 6t-65 14v55h140q125 0 125 125q0 72 -30.5 104t-94.5 32h-80v79h70q115 0 115 120q0 53 -28 81.5t-77 28.5h-130v55
q23 8 65 14t95 6z" />
    <glyph glyph-name="four" unicode="4" horiz-adv-x="485" 
d="M25 170v90l250 440h130v-450h55v-80h-55v-170h-120v170h-260zM285 250v270h-4l-146 -270h150z" />
    <glyph glyph-name="five" unicode="5" horiz-adv-x="465" 
d="M175 415h30q117 0 171 -53t54 -162q0 -106 -54 -158t-171 -52q-53 0 -95 6t-65 14v55h140q64 0 94.5 31.5t30.5 103.5q0 75 -30.5 107.5t-94.5 32.5h-130v360h350v-75h-230v-210z" />
    <glyph glyph-name="six" unicode="6" 
d="M255 710q53 0 95 -6t65 -14v-55h-130q-26 0 -48 -10.5t-38 -36.5t-25 -69t-9 -109q23 8 49.5 11.5t45.5 3.5q87 0 136 -53.5t49 -166.5q0 -109 -51 -162t-149 -53t-149 52t-51 158v220q0 150 56 220t154 70zM165 355v-155q0 -75 23 -107.5t57 -32.5t57 33t23 112
q0 41 -5 69.5t-18 46.5t-34 26t-53 8h-50z" />
    <glyph glyph-name="seven" unicode="7" horiz-adv-x="430" 
d="M400 610q-34 -86 -61 -165.5t-49 -154.5t-38 -147t-27 -143h-120q22 142 67 294.5t113 325.5h-265v80h380v-90z" />
    <glyph glyph-name="eight" unicode="8" horiz-adv-x="500" 
d="M250 710q98 0 149 -48t51 -127q0 -36 -10 -64t-26.5 -49t-37 -34.5t-41.5 -20.5v-4q26 -11 49.5 -27t41.5 -38.5t28.5 -52t10.5 -65.5q0 -91 -53 -140.5t-162 -49.5t-162 49.5t-53 140.5q0 36 10.5 65.5t28.5 52t41.5 38.5t49.5 27v4q-21 7 -41.5 20.5t-37 34.5t-26.5 49
t-10 64q0 79 51 127t149 48zM250 60q42 0 68.5 30t26.5 90q0 28 -7 49t-20 37.5t-30 29.5t-38 24q-21 -11 -38 -24t-30 -29.5t-20 -37.5t-7 -49q0 -60 26.5 -90t68.5 -30zM250 409q34 12 57 42.5t23 83.5q0 49 -25 77t-55 28t-55 -28t-25 -77q0 -53 23 -83.5t57 -42.5z" />
    <glyph glyph-name="nine" unicode="9" 
d="M220 -10q-53 0 -95 6t-65 14v55h130q26 0 48 10.5t38 36.5t25 69t9 109q-23 -8 -49.5 -11.5t-45.5 -3.5q-87 0 -136 53.5t-49 166.5q0 109 51 162t149 53t149 -52t51 -158v-220q0 -75 -14.5 -129.5t-41.5 -90.5t-66 -53t-88 -17zM310 345v155q0 75 -23 107.5t-57 32.5
t-57 -33t-23 -112q0 -41 5 -69.5t18 -46.5t34 -26t53 -8h50z" />
    <glyph glyph-name="colon" unicode=":" horiz-adv-x="200" 
d="M160 110v-120h-120v120h120zM160 500v-120h-120v120h120z" />
    <glyph glyph-name="semicolon" unicode=";" horiz-adv-x="190" 
d="M160 500v-120h-120v120h120zM40 110h120l-40 -230h-80v230z" />
    <glyph glyph-name="less" unicode="&#x3c;" horiz-adv-x="405" 
d="M40 305l325 195v-120l-210 -123v-5l210 -127v-120l-325 195v105z" />
    <glyph glyph-name="equal" unicode="=" horiz-adv-x="450" 
d="M420 255v-85h-390v85h390zM420 430v-85h-390v85h390z" />
    <glyph glyph-name="greater" unicode="&#x3e;" horiz-adv-x="405" 
d="M365 200l-325 -195v120l210 127v5l-210 123v120l325 -195v-105z" />
    <glyph glyph-name="question" unicode="?" horiz-adv-x="395" 
d="M105 185q0 46 10.5 79t26 59t33.5 46.5t33.5 42.5t26 47.5t10.5 60.5q0 57 -28 86t-77 29h-130v55q23 8 65 14t95 6q94 0 144.5 -49.5t50.5 -140.5q0 -42 -11 -73.5t-28 -56.5t-37 -46.5t-38 -45t-31 -50.5t-15 -63h-100zM215 110v-120h-120v120h120z" />
    <glyph glyph-name="at" unicode="@" horiz-adv-x="850" 
d="M460 470q-24 0 -43.5 -8.5t-33 -28t-21 -52t-7.5 -81.5q0 -41 7 -69.5t17.5 -46.5t24 -26t26.5 -8q19 0 33 6t22 14v300h-25zM605 155q17 0 33 9.5t29 33.5t20.5 64.5t7.5 102.5q0 132 -71.5 203.5t-203.5 71.5q-124 0 -194.5 -79t-70.5 -251q0 -169 75.5 -247t229.5 -78
h140v-55q-23 -8 -65 -14t-95 -6q-192 0 -293.5 102t-101.5 298q0 97 25.5 172t74 125.5t118 76.5t157.5 26q92 0 163.5 -25t121 -70.5t75 -109t25.5 -140.5q0 -73 -15.5 -125t-50 -85.5t-88.5 -49t-131 -15.5l-15 30h-5q-19 -19 -42.5 -29.5t-57.5 -10.5q-32 0 -61.5 13.5
t-52.5 40.5t-37 68.5t-14 97.5q0 128 54 184t171 56q42 0 82 -6t63 -14v-365z" />
    <glyph glyph-name="A" unicode="A" horiz-adv-x="540" 
d="M184 175l-44 -175h-125l180 700h150l180 -700h-125l-44 175h-172zM272 540h-4l-68 -285h139z" />
    <glyph glyph-name="B" unicode="B" horiz-adv-x="530" 
d="M370 373q60 -21 92.5 -68t32.5 -115q0 -98 -57.5 -149t-192.5 -51q-57 0 -97 4.5t-78 15.5v680q38 11 78 15.5t97 4.5q113 0 166.5 -49t53.5 -136q0 -45 -25 -86t-70 -62v-4zM190 330v-265h55q64 0 94.5 31t30.5 99q0 72 -30.5 103.5t-94.5 31.5h-55zM235 405q49 0 77 29
t28 86t-28 86t-77 29h-45v-230h45z" />
    <glyph glyph-name="C" unicode="C" horiz-adv-x="455" 
d="M280 -10q-58 0 -102 17t-73.5 58t-44.5 110.5t-15 174.5t15 174.5t43.5 110.5t70.5 58t96 17q53 0 95 -6t65 -14v-55h-120q-32 0 -58.5 -13t-46 -45t-30 -87.5t-10.5 -139.5t11 -139.5t31 -87.5t48.5 -45t64.5 -13h120v-55q-23 -8 -65 -14t-95 -6z" />
    <glyph glyph-name="D" unicode="D" horiz-adv-x="545" 
d="M500 350q0 -101 -16.5 -170t-49 -111t-80 -60.5t-109.5 -18.5q-57 0 -97 4.5t-78 15.5v680q38 11 78 15.5t97 4.5q62 0 109.5 -18.5t80 -60.5t49 -111t16.5 -170zM380 350q0 84 -10 139.5t-27.5 87.5t-42.5 45t-55 13h-55v-570h55q30 0 55 13t42.5 45t27.5 87.5t10 139.5
z" />
    <glyph glyph-name="E" unicode="E" 
d="M190 80h245v-80h-365v700h365v-80h-245v-215h215v-80h-215v-245z" />
    <glyph glyph-name="F" unicode="F" horiz-adv-x="455" 
d="M190 0h-120v700h365v-80h-245v-230h205v-80h-205v-310z" />
    <glyph glyph-name="G" unicode="G" horiz-adv-x="525" 
d="M465 10q-23 -8 -65.5 -14t-99.5 -6q-66 0 -114 17t-79.5 58t-46.5 110.5t-15 174.5t15 174.5t44.5 110.5t73.5 58t102 17q53 0 95 -6t65 -14v-55h-130q-32 0 -58.5 -13t-46 -45t-30 -87.5t-10.5 -139.5t11 -139.5t31 -87.5t48.5 -45t64.5 -13h25v315h120v-370z" />
    <glyph glyph-name="H" unicode="H" horiz-adv-x="560" 
d="M490 700v-700h-120v315h-180v-315h-120v700h120v-305h180v305h120z" />
    <glyph glyph-name="I" unicode="I" horiz-adv-x="260" 
d="M190 700v-700h-120v700h120z" />
    <glyph glyph-name="J" unicode="J" horiz-adv-x="375" 
d="M100 65q21 0 38 8.5t30 28.5t20 53.5t7 84.5v460h120v-460q0 -135 -53 -192.5t-162 -57.5q-30 0 -55.5 6t-44.5 14v55h100z" />
    <glyph glyph-name="K" unicode="K" horiz-adv-x="520" 
d="M510 0h-135l-185 330v-330h-120v700h120v-320l165 320h135l-185 -345z" />
    <glyph glyph-name="L" unicode="L" horiz-adv-x="445" 
d="M190 80h245v-80h-365v700h120v-620z" />
    <glyph glyph-name="M" unicode="M" horiz-adv-x="760" 
d="M220 700l158 -475h4l158 475h130l40 -700h-115l-27 474h-4l-129 -389h-110l-129 389h-4l-27 -474h-115l40 700h130z" />
    <glyph glyph-name="N" unicode="N" horiz-adv-x="570" 
d="M190 460h-5v-460h-115v700h120l190 -460h5v460h115v-700h-120z" />
    <glyph glyph-name="O" unicode="O" horiz-adv-x="550" 
d="M275 60q21 0 40.5 13t35 46t25 89t9.5 142t-9.5 142t-25 89t-35 46t-40.5 13t-40.5 -13t-35 -46t-25 -89t-9.5 -142t9.5 -142t25 -89t35 -46t40.5 -13zM275 710q52 0 94.5 -18.5t72.5 -60.5t46.5 -111t16.5 -170t-16.5 -170t-46.5 -111t-72.5 -60.5t-94.5 -18.5
q-53 0 -95.5 18.5t-72.5 60.5t-46 111t-16 170t16 170t46 111t72.5 60.5t95.5 18.5z" />
    <glyph glyph-name="P" unicode="P" horiz-adv-x="515" 
d="M245 280q28 0 49.5 8.5t36 29t22 55t7.5 87.5q0 51 -7.5 84.5t-22 53.5t-36 28.5t-49.5 8.5h-55v-355h55zM190 0h-120v690q38 11 78 15.5t97 4.5q62 0 106.5 -14t73 -44t42 -77.5t13.5 -114.5q0 -71 -13 -120.5t-39 -80.5t-64 -45t-89 -14q-6 0 -16.5 1t-22.5 2.5
l-24.5 3t-21.5 3.5v-210z" />
    <glyph glyph-name="Q" unicode="Q" horiz-adv-x="555" 
d="M275 710q52 0 94.5 -18.5t72.5 -60.5t46.5 -111t16.5 -170q0 -113 -22.5 -182.5t-52.5 -107.5q45 0 71 -6t49 -14v-50h-275q-53 0 -95.5 18.5t-72.5 60.5t-46 111t-16 170t16 170t46 111t72.5 60.5t95.5 18.5zM275 60q21 0 40.5 13t35 46t25 89t9.5 142t-9.5 142t-25 89
t-35 46t-40.5 13t-40.5 -13t-35 -46t-25 -89t-9.5 -142q0 -90 10 -146.5t26 -88.5t35.5 -43.5t38.5 -11.5z" />
    <glyph glyph-name="R" unicode="R" horiz-adv-x="535" 
d="M480 470q0 -51 -8 -87.5t-22.5 -62t-35 -42.5t-44.5 -28l135 -250h-135l-115 225h-65v-225h-120v690q38 11 78 15.5t97 4.5q62 0 106.5 -13.5t73 -42.5t42 -74.5t13.5 -109.5zM245 305q28 0 49.5 8t36 27.5t22 51t7.5 78.5t-7.5 78.5t-22 51t-36 27.5t-49.5 8h-55v-330
h55z" />
    <glyph glyph-name="S" unicode="S" horiz-adv-x="465" 
d="M30 530q0 83 51.5 131.5t153.5 48.5q53 0 95 -6t65 -14v-55h-140q-49 0 -77 -28t-28 -77q0 -44 21 -70t53 -44.5t68.5 -34.5t68.5 -40.5t53 -62t21 -98.5q0 -90 -56.5 -140t-183.5 -50q-53 0 -95 6t-65 14v55h140q75 0 107.5 29t32.5 86q0 41 -21 65.5t-53 42t-68.5 33.5
t-68.5 41.5t-53 64.5t-21 103z" />
    <glyph glyph-name="T" unicode="T" horiz-adv-x="450" 
d="M10 700h430v-80h-155v-620h-120v620h-155v80z" />
    <glyph glyph-name="U" unicode="U" horiz-adv-x="550" 
d="M275 60q21 0 38 8.5t30 29t20 55t7 87.5v460h120v-460q0 -135 -53 -192.5t-162 -57.5t-162 57.5t-53 192.5v460h120v-460q0 -53 7 -87.5t20 -55t30 -29t38 -8.5z" />
    <glyph glyph-name="V" unicode="V" horiz-adv-x="520" 
d="M140 700l118 -545h4l118 545h125l-170 -700h-150l-170 700h125z" />
    <glyph glyph-name="W" unicode="W" horiz-adv-x="750" 
d="M325 570h100l96 -375h4l85 505h125l-125 -700h-130l-103 390h-4l-103 -390h-130l-125 700h125l85 -505h4z" />
    <glyph glyph-name="X" unicode="X" horiz-adv-x="490" 
d="M150 700l95 -260l95 260h125l-130 -340l145 -360h-125l-110 285l-110 -285h-125l145 360l-130 340h125z" />
    <glyph glyph-name="Y" unicode="Y" horiz-adv-x="480" 
d="M238 365h4l108 335h125l-175 -490v-210h-120v210l-175 490h125z" />
    <glyph glyph-name="Z" unicode="Z" horiz-adv-x="435" 
d="M155 80h255v-80h-390v75l260 545h-255v80h390v-75z" />
    <glyph glyph-name="bracketleft" unicode="[" horiz-adv-x="285" 
d="M285 670h-95v-780h95v-70h-215v920h215v-70z" />
    <glyph glyph-name="backslash" unicode="\" horiz-adv-x="420" 
d="M120 700l300 -700h-120l-300 700h120z" />
    <glyph glyph-name="bracketright" unicode="]" horiz-adv-x="285" 
d="M0 740h215v-920h-215v70h95v780h-95v70z" />
    <glyph glyph-name="asciicircum" unicode="^" 
d="M235 595l-120 -200l-85 55l155 250h105l155 -250l-85 -55l-120 200h-5z" />
    <glyph glyph-name="underscore" unicode="_" horiz-adv-x="320" 
d="M0 0h320v-80h-320v80z" />
    <glyph glyph-name="grave" unicode="`" horiz-adv-x="200" 
d="M100 530l-80 170h125l35 -170h-80z" />
    <glyph glyph-name="a" unicode="a" 
d="M290 240h-55q-13 0 -26.5 -4t-24 -14.5t-17.5 -28t-7 -43.5t7 -43.5t17.5 -28t24 -14.5t26.5 -4q19 0 33 6t22 14v160zM195 -10q-32 0 -60 6.5t-49 24.5t-33.5 49t-12.5 80t12.5 80t34.5 49t52 24.5t66 6.5q23 0 44.5 -3t40.5 -7v40q0 60 -28 80t-77 20h-100v50
q23 8 56.5 14t63.5 6q51 0 89 -7t64 -25.5t39 -52t13 -85.5v-340h-85l-15 30h-5q-16 -15 -42 -27.5t-68 -12.5z" />
    <glyph glyph-name="b" unicode="b" horiz-adv-x="495" 
d="M190 485q16 11 37.5 18t47.5 7q41 0 74.5 -14t57 -45t36 -80.5t12.5 -120.5t-13.5 -120.5t-40.5 -80.5t-68.5 -45t-97.5 -14q-53 0 -90 7.5t-75 22.5v680h120v-215zM190 60h45q22 0 40.5 8.5t32 30t20.5 58.5t7 93t-7 93t-19 58.5t-28.5 30t-35.5 8.5t-33 -6t-22 -14
v-360z" />
    <glyph glyph-name="c" unicode="c" horiz-adv-x="395" 
d="M260 440q-23 0 -41 -8.5t-31.5 -30t-20.5 -58.5t-7 -93t7.5 -93t21.5 -58.5t34.5 -30t46.5 -8.5h110v-50q-23 -8 -57.5 -14t-72.5 -6q-53 0 -92 14t-65.5 45t-39.5 80.5t-13 120.5t13 120.5t38.5 80.5t62.5 45t86 14q38 0 72.5 -6t57.5 -14v-50h-110z" />
    <glyph glyph-name="d" unicode="d" horiz-adv-x="495" 
d="M305 420q-8 8 -22 14t-33 6t-35.5 -8.5t-28.5 -30t-19 -58.5t-7 -93t7 -93t19 -58.5t28.5 -30t35.5 -8.5t31.5 6t23.5 14v340zM210 -10q-38 0 -69 14t-53.5 45t-35 80.5t-12.5 120.5t12.5 120.5t36 80.5t57 45t74.5 14q26 0 47.5 -7t37.5 -18v215h120v-700h-85l-15 30h-5
q-16 -15 -42 -27.5t-68 -12.5z" />
    <glyph glyph-name="e" unicode="e" horiz-adv-x="460" 
d="M420 215h-260q0 -86 30.5 -120.5t94.5 -34.5h110v-50q-23 -8 -57.5 -14t-72.5 -6q-58 0 -100.5 14t-70 45t-41 80.5t-13.5 120.5t13 120.5t37 80.5t59.5 45t80.5 14t80.5 -14t59.5 -45t37 -80.5t13 -120.5v-35zM300 285q0 49 -5.5 80t-14.5 49t-22 24.5t-28 6.5t-28 -6.5
t-22 -24.5t-14.5 -49t-5.5 -80h140z" />
    <glyph glyph-name="f" unicode="f" horiz-adv-x="340" 
d="M75 530q0 52 12.5 85.5t33.5 52t49 25.5t60 7q15 0 32 -1.5t33.5 -4.5t31 -6.5t23.5 -7.5v-50h-80q-15 0 -28.5 -4.5t-24 -15.5t-16.5 -30.5t-6 -49.5v-40h135v-55q-23 -8 -57.5 -14t-72.5 -6h-5v-415h-120v415h-55v75h55v40z" />
    <glyph glyph-name="g" unicode="g" horiz-adv-x="490" 
d="M305 15q-15 -11 -37 -18t-48 -7q-41 0 -74.5 14t-57 45t-36 80.5t-12.5 120.5t13.5 120.5t40.5 80.5t68.5 45t97.5 14q53 0 90 -7.5t75 -22.5v-440q0 -135 -53 -192.5t-162 -57.5q-38 0 -72.5 6t-57.5 14v50h110q56 0 85.5 34.5t29.5 120.5zM305 440h-45q-23 0 -41 -8.5
t-31.5 -30t-20.5 -58.5t-7 -93t7 -93t19 -58.5t28.5 -30t35.5 -8.5t33 6t22 14v360z" />
    <glyph glyph-name="h" unicode="h" horiz-adv-x="510" 
d="M190 0h-120v700h120v-220q19 15 44.5 22.5t55.5 7.5q32 0 60 -6.5t49 -24.5t33.5 -49t12.5 -80v-350h-120v350q0 26 -7 43.5t-18 28t-25.5 14.5t-29.5 4q-19 0 -33 -6t-22 -14v-420z" />
    <glyph glyph-name="i" unicode="i" horiz-adv-x="260" 
d="M190 0h-120v500h120v-500zM190 680v-120h-120v120h120z" />
    <glyph glyph-name="j" unicode="j" horiz-adv-x="265" 
d="M195 -40q0 -53 -12.5 -86t-33.5 -51.5t-49 -25.5t-60 -7q-30 0 -55.5 6t-44.5 14v50h70q26 0 45.5 23.5t19.5 76.5v540h120v-540zM195 680v-120h-120v120h120z" />
    <glyph glyph-name="k" unicode="k" horiz-adv-x="460" 
d="M190 0h-120v700h120v-415l120 215h130l-135 -235l145 -265h-130l-130 245v-245z" />
    <glyph glyph-name="l" unicode="l" horiz-adv-x="260" 
d="M70 700h120v-700h-120v700z" />
    <glyph glyph-name="m" unicode="m" horiz-adv-x="740" 
d="M430 0h-120v350q0 26 -6.5 43.5t-17 28t-23 14.5t-23.5 4q-19 0 -33 -6t-22 -14v-420h-120v500h85l15 -30h5q16 15 43 27.5t72 12.5q38 0 64.5 -10.5t45.5 -29.5q23 19 54 29.5t76 10.5q30 0 57 -6.5t48 -24.5t33 -49t12 -80v-350h-120v350q0 26 -7 43.5t-17.5 28
t-24 14.5t-26.5 4q-19 0 -34 -4.5t-26 -10.5q4 -11 7 -31.5t3 -43.5v-350z" />
    <glyph glyph-name="n" unicode="n" horiz-adv-x="505" 
d="M285 510q32 0 60 -6.5t49 -24.5t33.5 -49t12.5 -80v-350h-120v350q0 26 -7 43.5t-18 28t-25.5 14.5t-29.5 4q-19 0 -33 -6t-22 -14v-420h-120v500h85l15 -30h5q16 15 43 27.5t72 12.5z" />
    <glyph glyph-name="o" unicode="o" horiz-adv-x="480" 
d="M240 445q-17 0 -31.5 -8.5t-25.5 -30.5t-17 -60t-6 -96t6 -96t17 -60t25.5 -30.5t31.5 -8.5t31.5 8.5t25.5 30.5t17 60t6 96t-6 96t-17 60t-25.5 30.5t-31.5 8.5zM240 510q49 0 86 -14t62.5 -45t38.5 -80.5t13 -120.5t-13 -120.5t-38.5 -80.5t-62.5 -45t-86 -14t-86 14
t-62.5 45t-38.5 80.5t-13 120.5t13 120.5t38.5 80.5t62.5 45t86 14z" />
    <glyph glyph-name="p" unicode="p" horiz-adv-x="490" 
d="M185 80q8 -8 22 -14t33 -6t35.5 8.5t28.5 30t19 58.5t7 93t-7 93t-19 58.5t-28.5 30t-35.5 8.5t-31.5 -6t-23.5 -14v-340zM280 510q37 0 68.5 -14t54 -45t35 -80.5t12.5 -120.5t-12.5 -120.5t-36 -80.5t-57 -45t-74.5 -14q-26 0 -47.5 7t-37.5 18v-215h-120v700h85
l15 -30h5q16 15 42 27.5t68 12.5z" />
    <glyph glyph-name="q" unicode="q" horiz-adv-x="490" 
d="M305 15q-16 -11 -37.5 -18t-47.5 -7q-41 0 -74.5 14t-57 45t-36 80.5t-12.5 120.5t13.5 120.5t40.5 80.5t68.5 45t97.5 14q53 0 90 -7.5t75 -22.5v-680h-120v215zM305 440h-45q-23 0 -41 -8.5t-31.5 -30t-20.5 -58.5t-7 -93t7 -93t19 -58.5t28.5 -30t35.5 -8.5t33 6
t22 14v360z" />
    <glyph glyph-name="r" unicode="r" horiz-adv-x="360" 
d="M350 500v-85h-110q-19 0 -33 -6t-22 -14v-395h-120v500h85l15 -40h5q16 15 43 27.5t72 12.5h65z" />
    <glyph glyph-name="s" unicode="s" horiz-adv-x="415" 
d="M150 380q0 -26 17.5 -42.5t43.5 -29t56.5 -24.5t56.5 -29.5t43.5 -45t17.5 -69.5q0 -45 -13 -74t-40 -46t-67.5 -23.5t-94.5 -6.5q-38 0 -72.5 6t-57.5 14v50h110q57 0 86 16t29 54q0 26 -17.5 42.5t-43.5 29t-56.5 24.5t-56.5 29.5t-43.5 44.5t-17.5 70q0 41 13 68
t37.5 43t61 22.5t83.5 6.5q38 0 72.5 -6t57.5 -14v-50h-110q-42 0 -68.5 -15t-26.5 -45z" />
    <glyph glyph-name="t" unicode="t" horiz-adv-x="365" 
d="M195 415v-255q0 -30 6 -49.5t15.5 -30.5t21 -15.5t22.5 -4.5h90v-50q-9 -4 -23.5 -7.5t-31 -6.5t-33.5 -4.5t-32 -1.5q-32 0 -60 7t-49 25.5t-33.5 51.5t-12.5 86v255h-55v75h55v120h120v-120h135v-55q-23 -8 -57.5 -14t-72.5 -6h-5z" />
    <glyph glyph-name="u" unicode="u" horiz-adv-x="505" 
d="M220 -10q-32 0 -60 6.5t-49 24.5t-33.5 49t-12.5 80v350h120v-350q0 -26 7 -43.5t18 -28t25.5 -14.5t29.5 -4q19 0 33 6t22 14v420h120v-500h-85l-15 30h-5q-16 -15 -43 -27.5t-72 -12.5z" />
    <glyph glyph-name="v" unicode="v" horiz-adv-x="470" 
d="M160 0l-145 500h120l98 -375h4l98 375h120l-145 -500h-150z" />
    <glyph glyph-name="w" unicode="w" horiz-adv-x="650" 
d="M245 0h-130l-100 500h120l61 -350h4l80 250h90l80 -250h4l61 350h120l-100 -500h-130l-78 245h-4z" />
    <glyph glyph-name="x" unicode="x" horiz-adv-x="430" 
d="M290 500h125l-115 -245l120 -255h-125l-80 185l-80 -185h-125l120 255l-115 245h125l75 -175z" />
    <glyph glyph-name="y" unicode="y" horiz-adv-x="505" 
d="M320 20q-38 -30 -100 -30q-32 0 -60 6.5t-49 24.5t-33.5 49t-12.5 80v350h120v-350q0 -26 7 -43.5t18 -28t25.5 -14.5t29.5 -4q19 0 33 6t22 14v420h120v-460q0 -135 -53 -192.5t-162 -57.5q-38 0 -72.5 6t-57.5 14v50h110q56 0 85.5 35t29.5 125z" />
    <glyph glyph-name="z" unicode="z" horiz-adv-x="400" 
d="M380 430l-220 -355h215v-75h-355v70l220 355h-210v75h350v-70z" />
    <glyph glyph-name="braceleft" unicode="{" horiz-adv-x="300" 
d="M215 460q0 -41 -7 -69.5t-19 -48.5t-28.5 -34t-35.5 -26v-4q19 -12 35.5 -26t28.5 -34t19 -48.5t7 -69.5v-110q0 -33 7 -53t18.5 -30.5t27 -13.5t32.5 -3v-70q-51 0 -89 7t-64 25.5t-39 51.5t-13 86v130q0 60 -20.5 87t-54.5 38v70q34 11 54.5 38t20.5 87v130
q0 52 13 85.5t39 52t64 25.5t89 7v-70q-17 0 -32.5 -4.5t-27 -15.5t-18.5 -30.5t-7 -49.5v-110z" />
    <glyph glyph-name="bar" unicode="|" horiz-adv-x="260" 
d="M190 700v-900h-120v900h120z" />
    <glyph glyph-name="braceright" unicode="}" horiz-adv-x="300" 
d="M85 570q0 30 -7 49.5t-18.5 30.5t-27 15.5t-32.5 4.5v70q51 0 89 -7t64 -25.5t39 -52t13 -85.5v-130q0 -60 20.5 -87t54.5 -38v-70q-34 -11 -54.5 -38t-20.5 -87v-130q0 -53 -13 -86t-39 -51.5t-64 -25.5t-89 -7v70q17 0 32.5 3t27 13.5t18.5 30.5t7 53v110q0 41 7 69.5
t19 48.5t28.5 34t35.5 26v4q-19 12 -35.5 26t-28.5 34t-19 48.5t-7 69.5v110z" />
    <glyph glyph-name="asciitilde" unicode="~" horiz-adv-x="460" 
d="M350 190q0 34 -11 54.5t-34 20.5q-17 0 -30 -12.5l-28.5 -27.5t-36.5 -27.5t-55 -12.5q-36 0 -60 12.5t-38.5 36.5t-20.5 58.5t-6 77.5h80q0 -34 11 -54.5t34 -20.5q17 0 30 12.5l28.5 27.5t36.5 27.5t55 12.5q36 0 60 -12.5t38.5 -36.5t20.5 -58.5t6 -77.5h-80z" />
    <glyph glyph-name="uni00A0" unicode="&#xa0;" horiz-adv-x="250" 
 />
    <glyph glyph-name="exclamdown" unicode="&#xa1;" horiz-adv-x="260" 
d="M180 515l20 -515h-140l20 515h100zM70 590v120h120v-120h-120z" />
    <glyph glyph-name="cent" unicode="&#xa2;" horiz-adv-x="395" 
d="M225 -9q-93 6 -139 65.5t-46 193.5q0 68 12 116.5t35 79.5t58 46t80 17v61h70v-64q22 -3 41.5 -7t33.5 -9v-50h-75v-380h85v-50q-16 -5 -38 -10t-47 -7v-53h-70v51zM160 250q0 -86 16.5 -127.5t48.5 -54.5v366q-30 -12 -47.5 -54t-17.5 -130z" />
    <glyph glyph-name="sterling" unicode="&#xa3;" horiz-adv-x="435" 
d="M90 395v105q0 67 13 108.5t40 64t67.5 30t94.5 7.5q30 0 55.5 -6t44.5 -14v-55h-100q-21 0 -38 -5t-30 -19.5t-20 -41t-7 -69.5v-105h145v-80h-145v-81q0 -34 -4.5 -58.5t-11.5 -42.5t-16 -29.5t-18 -19.5v-4h255v-80h-370v60q11 7 19.5 17.5t14 27.5t8.5 42t3 63v105
h-55v80h55z" />
    <glyph glyph-name="currency" unicode="&#xa4;" horiz-adv-x="520" 
d="M180 350q0 -57 25 -86t55 -29t55 29t25 86t-25 86t-55 29t-55 -29t-25 -86zM455 350q0 -26 -7 -53t-18 -42l70 -70l-60 -60l-70 65q-15 -11 -43.5 -20.5t-66.5 -9.5t-66.5 9.5t-43.5 20.5l-70 -65l-60 60l70 70q-11 15 -18 42t-7 53t7 53t18 42l-70 70l60 60l70 -65
q15 11 43.5 20.5t66.5 9.5t66.5 -9.5t43.5 -20.5l70 65l60 -60l-70 -70q11 -15 18 -42t7 -53z" />
    <glyph glyph-name="yen" unicode="&#xa5;" horiz-adv-x="480" 
d="M65 405h45l-105 295h125l108 -335h4l108 335h125l-106 -295h46v-80h-74l-18 -50h92v-80h-115v-195h-120v195h-115v80h92l-18 50h-74v80z" />
    <glyph glyph-name="brokenbar" unicode="&#xa6;" horiz-adv-x="260" 
d="M190 170v-370h-120v370h120zM190 680v-370h-120v370h120z" />
    <glyph glyph-name="section" unicode="&#xa7;" horiz-adv-x="465" 
d="M305 250q0 21 -8 38t-21 31t-30 25.5t-36 20.5q-23 -15 -36.5 -42.5t-13.5 -72.5q0 -41 28.5 -68.5t66.5 -46.5q23 15 36.5 42.5t13.5 72.5zM50 550q0 34 13 63t39.5 50.5t65.5 34t92 12.5q45 0 83.5 -6t61.5 -14v-50h-125q-53 0 -81.5 -26t-28.5 -64q0 -31 19 -51.5
t47 -36.5t61.5 -32t61.5 -39t47 -56.5t19 -84.5q0 -57 -28.5 -94t-66.5 -56q19 -11 36 -24.5t30 -31.5t21 -41t8 -53q0 -34 -13.5 -63t-40.5 -50.5t-68.5 -34t-97.5 -12.5q-45 0 -83.5 6t-61.5 14v50h125q60 0 90 26t30 64q0 31 -19.5 51.5t-49 36.5t-64 32t-64 39t-49 56.5
t-19.5 84.5q0 56 29 94t71 61q-19 11 -35.5 24t-28.5 30t-19 39t-7 52z" />
    <glyph glyph-name="dieresis" unicode="&#xa8;" horiz-adv-x="310" 
d="M130 690v-120h-110v120h110zM290 690v-120h-110v120h110z" />
    <glyph glyph-name="copyright" unicode="&#xa9;" horiz-adv-x="840" 
d="M245 350q0 67 12.5 110t36.5 67.5t58.5 33.5t77.5 9q42 0 72 -6t53 -14v-50h-105q-21 0 -38 -5t-30 -21t-20 -45.5t-7 -78.5t7 -78.5t20 -45.5t30 -21t38 -5h115v-50q-23 -8 -58 -14t-77 -6q-43 0 -77.5 9t-58.5 33.5t-36.5 67t-12.5 110.5zM695 350q0 71 -20 127
t-56 94.5t-86.5 58.5t-112.5 20t-112.5 -20t-86.5 -58.5t-56 -94.5t-20 -127t20 -127t56 -94.5t86.5 -58.5t112.5 -20t112.5 20t86.5 58.5t56 94.5t20 127zM795 350q0 -83 -27 -151t-76 -116.5t-118.5 -75.5t-153.5 -27t-153.5 27t-118.5 75.5t-76 116.5t-27 151
q0 82 27 150.5t76 117t118.5 75.5t153.5 27t153.5 -27t118.5 -75.5t76 -117t27 -150.5z" />
    <glyph glyph-name="ordfeminine" unicode="&#xaa;" horiz-adv-x="305" 
d="M190 530h-35q-40 0 -40 -40q0 -15 10.5 -25t29.5 -10q8 0 14 0.5t11 1.5t10 3v70zM135 590q9 0 19 -1t18 -2q10 -1 18 -2v15q0 45 -55 45h-80v48q15 5 39.5 8.5t50.5 3.5q32 0 56 -4.5t40.5 -16t25 -32t8.5 -52.5v-200h-70l-10 20q-15 -11 -31 -18t-39 -7q-19 0 -36 5
t-30 16t-21 29.5t-8 44.5q0 56 30 78t75 22z" />
    <glyph glyph-name="guillemotleft" unicode="&#xab;" horiz-adv-x="510" 
d="M150 247l130 -172l-85 -55l-175 230l175 230l85 -55l-130 -172v-6zM350 247l130 -172l-85 -55l-175 230l175 230l85 -55l-130 -172v-6z" />
    <glyph glyph-name="logicalnot" unicode="&#xac;" horiz-adv-x="445" 
d="M415 240h-85l-15 95h-285v80h385v-175z" />
    <glyph glyph-name="uni00AD" unicode="&#xad;" horiz-adv-x="360" 
d="M30 340h300v-80h-300v80z" />
    <glyph glyph-name="registered" unicode="&#xae;" horiz-adv-x="840" 
d="M375 140h-110v410q26 8 59 14t86 6q91 0 135.5 -32.5t44.5 -107.5q0 -32 -7.5 -53.5t-18.5 -35.5t-24 -22t-25 -14l85 -165h-115l-70 145h-40v-145zM410 355q30 0 50 16.5t20 58.5q0 38 -20 54t-50 16h-35v-145h35zM695 350q0 71 -20 127t-56 94.5t-86.5 58.5t-112.5 20
t-112.5 -20t-86.5 -58.5t-56 -94.5t-20 -127t20 -127t56 -94.5t86.5 -58.5t112.5 -20t112.5 20t86.5 58.5t56 94.5t20 127zM795 350q0 -83 -27 -151t-76 -116.5t-118.5 -75.5t-153.5 -27t-153.5 27t-118.5 75.5t-76 116.5t-27 151q0 82 27 150.5t76 117t118.5 75.5t153.5 27
t153.5 -27t118.5 -75.5t76 -117t27 -150.5z" />
    <glyph glyph-name="macron" unicode="&#xaf;" horiz-adv-x="280" 
d="M20 700h240v-70h-240v70z" />
    <glyph glyph-name="degree" unicode="&#xb0;" horiz-adv-x="410" 
d="M205 640q-23 0 -41.5 -22.5t-18.5 -67.5t18.5 -67.5t41.5 -22.5t41.5 22.5t18.5 67.5t-18.5 67.5t-41.5 22.5zM205 710q79 0 122 -42.5t43 -117.5t-43 -117.5t-122 -42.5t-122 42.5t-43 117.5t43 117.5t122 42.5z" />
    <glyph glyph-name="plusminus" unicode="&#xb1;" horiz-adv-x="450" 
d="M30 125h390v-80h-390v80zM270 540v-160h150v-80h-150v-150h-90v150h-150v80h150v160h90z" />
    <glyph glyph-name="uni00B2" unicode="&#xb2;" horiz-adv-x="270" 
d="M125 705q60 0 87.5 -25.5t27.5 -74.5q0 -34 -27.5 -67t-87.5 -78h115v-60h-210v65l49 40.5t40 37t26.5 33.5t9.5 29q0 15 -11 27.5t-34 12.5h-70v49q15 5 38.5 8t46.5 3z" />
    <glyph glyph-name="uni00B3" unicode="&#xb3;" horiz-adv-x="270" 
d="M115 705q53 0 84 -18t31 -67q0 -26 -15 -41t-30 -19q19 -4 37 -22.5t18 -52.5q0 -53 -33 -71.5t-97 -18.5q-23 0 -44 3t-36 8v49h80q23 0 34 10t11 25t-10.5 25t-29.5 10h-50v60h45q19 0 27 9.5t8 20.5t-9 20.5t-32 9.5h-74v49q14 5 36.5 8t48.5 3z" />
    <glyph glyph-name="acute" unicode="&#xb4;" horiz-adv-x="190" 
d="M20 560l35 130h115l-75 -130h-75z" />
    <glyph glyph-name="uni00B5" unicode="&#xb5;" horiz-adv-x="505" 
d="M320 500h120v-500h-85l-15 30h-5q-19 -19 -39.5 -29.5t-50.5 -10.5q-23 0 -37.5 8.5t-22.5 16.5v-215h-120v700h120v-330q0 -53 25 -81.5t55 -28.5q19 0 33 6t22 14v420z" />
    <glyph glyph-name="paragraph" unicode="&#xb6;" horiz-adv-x="565" 
d="M485 -200h-110v820h-40v-820h-110v530q-94 0 -144.5 49t-50.5 136q0 36 13 69t37.5 59t61 41.5t83.5 15.5h320v-80h-60v-820z" />
    <glyph glyph-name="periodcentered" unicode="&#xb7;" horiz-adv-x="280" 
d="M200 410v-120h-120v120h120z" />
    <glyph glyph-name="cedilla" unicode="&#xb8;" horiz-adv-x="215" 
d="M105 -30q45 0 67.5 -20t22.5 -50t-25.5 -50t-74.5 -20q-19 0 -33 2t-23 5q-11 4 -19 8v34h65q23 0 29 6.5t6 14.5t-5.5 14.5t-24.5 6.5h-55v94h55v-45h15z" />
    <glyph glyph-name="uni00B9" unicode="&#xb9;" horiz-adv-x="200" 
d="M170 700v-300h-85v240h-55v48q15 5 42.5 8.5t57.5 3.5h40z" />
    <glyph glyph-name="ordmasculine" unicode="&#xba;" horiz-adv-x="320" 
d="M160 455q19 0 32 21t13 74t-13 74t-32 21t-32 -21t-13 -74t13 -74t32 -21zM160 705q57 0 93.5 -38t36.5 -117t-36.5 -117t-93.5 -38t-93.5 38t-36.5 117t36.5 117t93.5 38z" />
    <glyph glyph-name="guillemotright" unicode="&#xbb;" horiz-adv-x="510" 
d="M360 253l-130 172l85 55l175 -230l-175 -230l-85 55l130 172v6zM160 253l-130 172l85 55l175 -230l-175 -230l-85 55l130 172v6z" />
    <glyph glyph-name="onequarter" unicode="&#xbc;" horiz-adv-x="590" 
d="M425 115v85l-65 -85h65zM285 115l140 185h85v-185h25v-60h-25v-55h-85v55h-140v60zM540 700l-390 -700h-110l390 700h110zM190 700v-300h-85v240h-55v48q15 5 42.5 8.5t57.5 3.5h40z" />
    <glyph glyph-name="onehalf" unicode="&#xbd;" horiz-adv-x="620" 
d="M550 700l-390 -700h-110l390 700h110zM205 700v-300h-85v240h-55v48q15 5 42.5 8.5t57.5 3.5h40zM445 305q60 0 87.5 -25.5t27.5 -74.5q0 -34 -27.5 -67t-87.5 -78h115v-60h-210v65l49 40.5t40 37t26.5 33.5t9.5 29q0 15 -11 27.5t-34 12.5h-70v49q15 5 38.5 8t46.5 3z
" />
    <glyph glyph-name="threequarters" unicode="&#xbe;" horiz-adv-x="605" 
d="M440 115v85l-65 -85h65zM300 115l140 185h85v-185h25v-60h-25v-55h-85v55h-140v60zM555 700l-390 -700h-110l390 700h110zM125 705q53 0 84 -18t31 -67q0 -26 -15 -41t-30 -19q19 -4 37 -22.5t18 -52.5q0 -53 -33 -71.5t-97 -18.5q-23 0 -44 3t-36 8v49h80q23 0 34 10
t11 25t-10.5 25t-29.5 10h-50v60h45q19 0 27 9.5t8 20.5t-9 20.5t-32 9.5h-74v49q14 5 36.5 8t48.5 3z" />
    <glyph glyph-name="questiondown" unicode="&#xbf;" horiz-adv-x="395" 
d="M290 515q0 -46 -10.5 -79t-26 -59t-33.5 -46.5t-33.5 -42.5t-26 -47.5t-10.5 -60.5q0 -57 28 -86t77 -29h130v-55q-23 -8 -65 -14t-95 -6q-94 0 -144.5 49.5t-50.5 140.5q0 42 11 73.5t28 56.5t37 46.5t38 45t30.5 50.5t15.5 63h100zM180 590v120h120v-120h-120z" />
    <glyph glyph-name="Agrave" unicode="&#xc0;" horiz-adv-x="540" 
d="M240 750l-75 130h115l35 -130h-75zM184 175l-44 -175h-125l180 700h150l180 -700h-125l-44 175h-172zM272 540h-4l-68 -285h139z" />
    <glyph glyph-name="Aacute" unicode="&#xc1;" horiz-adv-x="540" 
d="M230 750l35 130h115l-75 -130h-75zM184 175l-44 -175h-125l180 700h150l180 -700h-125l-44 175h-172zM272 540h-4l-68 -285h139z" />
    <glyph glyph-name="Acircumflex" unicode="&#xc2;" horiz-adv-x="540" 
d="M138 750l80 130h105l80 -130h-77l-56 70l-56 -70h-76zM184 175l-44 -175h-125l180 700h150l180 -700h-125l-44 175h-172zM272 540h-4l-68 -285h139z" />
    <glyph glyph-name="Atilde" unicode="&#xc3;" horiz-adv-x="540" 
d="M330 755q0 40 -25 40q-9 0 -18 -8l-19.5 -17t-23 -17t-29.5 -8t-31 6t-23.5 20t-15 37t-5.5 57h60q0 -40 25 -40q9 0 18 8l19.5 17t23 17t29.5 8q34 0 54.5 -26.5t20.5 -93.5h-60zM184 175l-44 -175h-125l180 700h150l180 -700h-125l-44 175h-172zM272 540h-4l-68 -285
h139z" />
    <glyph glyph-name="Adieresis" unicode="&#xc4;" horiz-adv-x="540" 
d="M245 870v-120h-110v120h110zM405 870v-120h-110v120h110zM184 175l-44 -175h-125l180 700h150l180 -700h-125l-44 175h-172zM272 540h-4l-68 -285h139z" />
    <glyph glyph-name="Aring" unicode="&#xc5;" horiz-adv-x="540" 
d="M300 810q0 15 -9.5 22.5t-20.5 7.5t-20.5 -7.5t-9.5 -22.5t9.5 -22.5t20.5 -7.5t20.5 7.5t9.5 22.5zM365 810q0 -38 -26.5 -61.5t-68.5 -23.5t-68.5 23.5t-26.5 61.5t26.5 61.5t68.5 23.5t68.5 -23.5t26.5 -61.5zM184 175l-44 -175h-125l180 700h150l180 -700h-125
l-44 175h-172zM272 540h-4l-68 -285h139z" />
    <glyph glyph-name="AE" unicode="&#xc6;" horiz-adv-x="755" 
d="M240 700h475v-80h-245v-215h215v-80h-215v-245h245v-80h-365v175h-170l-61 -175h-119zM207 255h143v365h-19z" />
    <glyph glyph-name="Ccedilla" unicode="&#xc7;" horiz-adv-x="455" 
d="M275 -10v-20h15q45 0 67.5 -20t22.5 -50t-25.5 -50t-74.5 -20q-19 0 -33 2t-23 5q-11 4 -19 8v34h65q23 0 29 6.5t6 14.5t-5.5 14.5t-24.5 6.5h-55v75q-43 8 -75.5 31t-54.5 65t-33.5 105.5t-11.5 152.5q0 105 15 174.5t43.5 110.5t70.5 58t96 17q53 0 95 -6t65 -14v-55
h-120q-32 0 -58.5 -13t-46 -45t-30 -87.5t-10.5 -139.5t11 -139.5t31 -87.5t48.5 -45t64.5 -13h120v-55q-23 -8 -62.5 -14t-92.5 -6h-10z" />
    <glyph glyph-name="Egrave" unicode="&#xc8;" 
d="M190 80h245v-80h-365v700h365v-80h-245v-215h215v-80h-215v-245zM230 750l-75 130h115l35 -130h-75z" />
    <glyph glyph-name="Eacute" unicode="&#xc9;" 
d="M190 80h245v-80h-365v700h365v-80h-245v-215h215v-80h-215v-245zM215 750l35 130h115l-75 -130h-75z" />
    <glyph glyph-name="Ecircumflex" unicode="&#xca;" 
d="M190 80h245v-80h-365v700h365v-80h-245v-215h215v-80h-215v-245zM120 750l80 130h105l80 -130h-77l-56 70l-56 -70h-76z" />
    <glyph glyph-name="Edieresis" unicode="&#xcb;" 
d="M190 80h245v-80h-365v700h365v-80h-245v-215h215v-80h-215v-245zM225 880v-120h-110v120h110zM385 880v-120h-110v120h110z" />
    <glyph glyph-name="Igrave" unicode="&#xcc;" horiz-adv-x="255" 
d="M185 700v-700h-120v700h120zM90 750l-75 130h115l35 -130h-75z" />
    <glyph glyph-name="Iacute" unicode="&#xcd;" horiz-adv-x="255" 
d="M190 700v-700h-120v700h120zM90 750l35 130h115l-75 -130h-75z" />
    <glyph glyph-name="Icircumflex" unicode="&#xce;" horiz-adv-x="235" 
d="M175 700v-700h-120v700h120zM-15 750l80 130h105l80 -130h-77l-56 70l-56 -70h-76z" />
    <glyph glyph-name="Idieresis" unicode="&#xcf;" horiz-adv-x="250" 
d="M185 700v-700h-120v700h120zM100 880v-120h-110v120h110zM260 880v-120h-110v120h110z" />
    <glyph glyph-name="Eth" unicode="&#xd0;" horiz-adv-x="560" 
d="M10 395h75v295q38 11 78 15.5t97 4.5q62 0 109.5 -18.5t80 -60.5t49 -111t16.5 -170t-16.5 -170t-49 -111t-80 -60.5t-109.5 -18.5q-57 0 -97 4.5t-78 15.5v305h-75v80zM395 350q0 84 -10 139.5t-27.5 87.5t-42.5 45t-55 13h-55v-240h105v-80h-105v-250h55q30 0 55 13
t42.5 45t27.5 87.5t10 139.5z" />
    <glyph glyph-name="Ntilde" unicode="&#xd1;" horiz-adv-x="570" 
d="M190 460h-5v-460h-115v700h120l190 -460h5v460h115v-700h-120zM340 755q0 40 -25 40q-9 0 -18 -8l-19.5 -17t-23 -17t-29.5 -8t-31 6t-23.5 20t-15 37t-5.5 57h60q0 -40 25 -40q9 0 18 8l19.5 17t23 17t29.5 8q34 0 54.5 -26.5t20.5 -93.5h-60z" />
    <glyph glyph-name="Ograve" unicode="&#xd2;" horiz-adv-x="550" 
d="M275 60q21 0 40.5 13t35 46t25 89t9.5 142t-9.5 142t-25 89t-35 46t-40.5 13t-40.5 -13t-35 -46t-25 -89t-9.5 -142t9.5 -142t25 -89t35 -46t40.5 -13zM275 710q52 0 94.5 -18.5t72.5 -60.5t46.5 -111t16.5 -170t-16.5 -170t-46.5 -111t-72.5 -60.5t-94.5 -18.5
q-53 0 -95.5 18.5t-72.5 60.5t-46 111t-16 170t16 170t46 111t72.5 60.5t95.5 18.5zM240 760l-75 130h115l35 -130h-75z" />
    <glyph glyph-name="Oacute" unicode="&#xd3;" horiz-adv-x="550" 
d="M275 60q21 0 40.5 13t35 46t25 89t9.5 142t-9.5 142t-25 89t-35 46t-40.5 13t-40.5 -13t-35 -46t-25 -89t-9.5 -142t9.5 -142t25 -89t35 -46t40.5 -13zM275 710q52 0 94.5 -18.5t72.5 -60.5t46.5 -111t16.5 -170t-16.5 -170t-46.5 -111t-72.5 -60.5t-94.5 -18.5
q-53 0 -95.5 18.5t-72.5 60.5t-46 111t-16 170t16 170t46 111t72.5 60.5t95.5 18.5zM230 760l35 130h115l-75 -130h-75z" />
    <glyph glyph-name="Ocircumflex" unicode="&#xd4;" horiz-adv-x="550" 
d="M275 60q21 0 40.5 13t35 46t25 89t9.5 142t-9.5 142t-25 89t-35 46t-40.5 13t-40.5 -13t-35 -46t-25 -89t-9.5 -142t9.5 -142t25 -89t35 -46t40.5 -13zM275 710q52 0 94.5 -18.5t72.5 -60.5t46.5 -111t16.5 -170t-16.5 -170t-46.5 -111t-72.5 -60.5t-94.5 -18.5
q-53 0 -95.5 18.5t-72.5 60.5t-46 111t-16 170t16 170t46 111t72.5 60.5t95.5 18.5zM145 760l80 130h105l80 -130h-77l-56 70l-56 -70h-76z" />
    <glyph glyph-name="Otilde" unicode="&#xd5;" horiz-adv-x="550" 
d="M275 60q21 0 40.5 13t35 46t25 89t9.5 142t-9.5 142t-25 89t-35 46t-40.5 13t-40.5 -13t-35 -46t-25 -89t-9.5 -142t9.5 -142t25 -89t35 -46t40.5 -13zM275 710q52 0 94.5 -18.5t72.5 -60.5t46.5 -111t16.5 -170t-16.5 -170t-46.5 -111t-72.5 -60.5t-94.5 -18.5
q-53 0 -95.5 18.5t-72.5 60.5t-46 111t-16 170t16 170t46 111t72.5 60.5t95.5 18.5zM335 765q0 40 -25 40q-9 0 -18 -8l-19.5 -17t-23 -17t-29.5 -8t-31 6t-23.5 20t-15 37t-5.5 57h60q0 -40 25 -40q9 0 18 8l19.5 17t23 17t29.5 8q34 0 54.5 -26.5t20.5 -93.5h-60z" />
    <glyph glyph-name="Odieresis" unicode="&#xd6;" horiz-adv-x="550" 
d="M275 60q21 0 40.5 13t35 46t25 89t9.5 142t-9.5 142t-25 89t-35 46t-40.5 13t-40.5 -13t-35 -46t-25 -89t-9.5 -142t9.5 -142t25 -89t35 -46t40.5 -13zM275 710q52 0 94.5 -18.5t72.5 -60.5t46.5 -111t16.5 -170t-16.5 -170t-46.5 -111t-72.5 -60.5t-94.5 -18.5
q-53 0 -95.5 18.5t-72.5 60.5t-46 111t-16 170t16 170t46 111t72.5 60.5t95.5 18.5zM250 880v-120h-110v120h110zM410 880v-120h-110v120h110z" />
    <glyph glyph-name="multiply" unicode="&#xd7;" horiz-adv-x="420" 
d="M380 220l-60 -60l-110 110l-110 -110l-60 60l110 110l-110 110l60 60l110 -110l110 110l60 -60l-110 -110z" />
    <glyph glyph-name="Oslash" unicode="&#xd8;" horiz-adv-x="550" 
d="M78 125q-16 42 -24.5 97t-8.5 128q0 101 16 170t46 111t72.5 60.5t95.5 18.5q51 0 92 -17t71 -56l37 53l50 -40l-53 -75q16 -42 24.5 -97t8.5 -128q0 -101 -16.5 -170t-46.5 -111t-72.5 -60.5t-94.5 -18.5q-51 0 -92 17t-71 55l-37 -52l-50 40zM165 350q0 -27 1 -51
t3 -45l197 281q-15 60 -40 82.5t-51 22.5q-21 0 -40.5 -13t-35 -46t-25 -89t-9.5 -142zM275 60q21 0 40.5 13t35 46t25 89t9.5 142q0 27 -1 50.5t-3 44.5l-198 -281q16 -59 40.5 -81.5t51.5 -22.5z" />
    <glyph glyph-name="Ugrave" unicode="&#xd9;" horiz-adv-x="550" 
d="M275 60q21 0 38 8.5t30 29t20 55t7 87.5v460h120v-460q0 -135 -53 -192.5t-162 -57.5t-162 57.5t-53 192.5v460h120v-460q0 -53 7 -87.5t20 -55t30 -29t38 -8.5zM245 740l-75 130h115l35 -130h-75z" />
    <glyph glyph-name="Uacute" unicode="&#xda;" horiz-adv-x="550" 
d="M275 60q21 0 38 8.5t30 29t20 55t7 87.5v460h120v-460q0 -135 -53 -192.5t-162 -57.5t-162 57.5t-53 192.5v460h120v-460q0 -53 7 -87.5t20 -55t30 -29t38 -8.5zM230 740l35 130h115l-75 -130h-75z" />
    <glyph glyph-name="Ucircumflex" unicode="&#xdb;" horiz-adv-x="550" 
d="M275 60q21 0 38 8.5t30 29t20 55t7 87.5v460h120v-460q0 -135 -53 -192.5t-162 -57.5t-162 57.5t-53 192.5v460h120v-460q0 -53 7 -87.5t20 -55t30 -29t38 -8.5zM143 740l80 130h105l80 -130h-77l-56 70l-56 -70h-76z" />
    <glyph glyph-name="Udieresis" unicode="&#xdc;" horiz-adv-x="550" 
d="M275 60q21 0 38 8.5t30 29t20 55t7 87.5v460h120v-460q0 -135 -53 -192.5t-162 -57.5t-162 57.5t-53 192.5v460h120v-460q0 -53 7 -87.5t20 -55t30 -29t38 -8.5zM250 860v-120h-110v120h110zM410 860v-120h-110v120h110z" />
    <glyph glyph-name="Yacute" unicode="&#xdd;" horiz-adv-x="480" 
d="M238 365h4l108 335h125l-175 -490v-210h-120v210l-175 490h125zM199 740l35 130h115l-75 -130h-75z" />
    <glyph glyph-name="Thorn" unicode="&#xde;" horiz-adv-x="525" 
d="M190 635q158 -8 229 -80.5t71 -204.5t-71 -204.5t-229 -80.5v-75h-120v720h120v-75zM190 140q83 4 131.5 58t48.5 152t-48.5 152t-131.5 58v-420z" />
    <glyph glyph-name="germandbls" unicode="&#xdf;" horiz-adv-x="550" 
d="M360 365q0 -17 12 -31.5t30.5 -28.5l40 -29t40 -34.5t30.5 -45.5t12 -61q0 -43 -12.5 -71t-36.5 -44.5t-58.5 -23t-77.5 -6.5q-23 0 -52.5 6t-52.5 14v50h85q34 0 59.5 17t25.5 58q0 25 -12 42.5t-30.5 32.5t-40 29t-40 31t-30.5 39.5t-12 55.5q0 34 16.5 56.5t36 41.5
t36 39t16.5 48q0 22 -7 38.5t-17.5 26.5t-24 15t-26.5 5q-34 0 -59.5 -32.5t-25.5 -107.5v-495h-120v495q0 215 205 215q47 0 83.5 -12.5t61 -34t37.5 -50.5t13 -63q0 -39 -16.5 -63t-36 -42.5t-36 -36t-16.5 -43.5z" />
    <glyph glyph-name="agrave" unicode="&#xe0;" 
d="M290 240h-55q-13 0 -26.5 -4t-24 -14.5t-17.5 -28t-7 -43.5t7 -43.5t17.5 -28t24 -14.5t26.5 -4q19 0 33 6t22 14v160zM195 -10q-32 0 -60 6.5t-49 24.5t-33.5 49t-12.5 80t12.5 80t34.5 49t52 24.5t66 6.5q23 0 44.5 -3t40.5 -7v40q0 60 -28 80t-77 20h-100v50
q23 8 56.5 14t63.5 6q51 0 89 -7t64 -25.5t39 -52t13 -85.5v-340h-85l-15 30h-5q-16 -15 -42 -27.5t-68 -12.5zM216 560l-75 130h115l35 -130h-75z" />
    <glyph glyph-name="aacute" unicode="&#xe1;" 
d="M290 240h-55q-13 0 -26.5 -4t-24 -14.5t-17.5 -28t-7 -43.5t7 -43.5t17.5 -28t24 -14.5t26.5 -4q19 0 33 6t22 14v160zM195 -10q-32 0 -60 6.5t-49 24.5t-33.5 49t-12.5 80t12.5 80t34.5 49t52 24.5t66 6.5q23 0 44.5 -3t40.5 -7v40q0 60 -28 80t-77 20h-100v50
q23 8 56.5 14t63.5 6q51 0 89 -7t64 -25.5t39 -52t13 -85.5v-340h-85l-15 30h-5q-16 -15 -42 -27.5t-68 -12.5zM195 560l35 130h115l-75 -130h-75z" />
    <glyph glyph-name="acircumflex" unicode="&#xe2;" 
d="M290 240h-55q-13 0 -26.5 -4t-24 -14.5t-17.5 -28t-7 -43.5t7 -43.5t17.5 -28t24 -14.5t26.5 -4q19 0 33 6t22 14v160zM195 -10q-32 0 -60 6.5t-49 24.5t-33.5 49t-12.5 80t12.5 80t34.5 49t52 24.5t66 6.5q23 0 44.5 -3t40.5 -7v40q0 60 -28 80t-77 20h-100v50
q23 8 56.5 14t63.5 6q51 0 89 -7t64 -25.5t39 -52t13 -85.5v-340h-85l-15 30h-5q-16 -15 -42 -27.5t-68 -12.5zM110 550l80 130h105l80 -130h-77l-56 70l-56 -70h-76z" />
    <glyph glyph-name="atilde" unicode="&#xe3;" 
d="M290 240h-55q-13 0 -26.5 -4t-24 -14.5t-17.5 -28t-7 -43.5t7 -43.5t17.5 -28t24 -14.5t26.5 -4q19 0 33 6t22 14v160zM195 -10q-32 0 -60 6.5t-49 24.5t-33.5 49t-12.5 80t12.5 80t34.5 49t52 24.5t66 6.5q23 0 44.5 -3t40.5 -7v40q0 60 -28 80t-77 20h-100v50
q23 8 56.5 14t63.5 6q51 0 89 -7t64 -25.5t39 -52t13 -85.5v-340h-85l-15 30h-5q-16 -15 -42 -27.5t-68 -12.5zM305 570q0 40 -25 40q-9 0 -18 -8l-19.5 -17t-23 -17t-29.5 -8t-31 6t-23.5 20t-15 37t-5.5 57h60q0 -40 25 -40q9 0 18 8l19.5 17t23 17t29.5 8
q34 0 54.5 -26.5t20.5 -93.5h-60z" />
    <glyph glyph-name="adieresis" unicode="&#xe4;" 
d="M290 240h-55q-13 0 -26.5 -4t-24 -14.5t-17.5 -28t-7 -43.5t7 -43.5t17.5 -28t24 -14.5t26.5 -4q19 0 33 6t22 14v160zM195 -10q-32 0 -60 6.5t-49 24.5t-33.5 49t-12.5 80t12.5 80t34.5 49t52 24.5t66 6.5q23 0 44.5 -3t40.5 -7v40q0 60 -28 80t-77 20h-100v50
q23 8 56.5 14t63.5 6q51 0 89 -7t64 -25.5t39 -52t13 -85.5v-340h-85l-15 30h-5q-16 -15 -42 -27.5t-68 -12.5zM215 680v-120h-110v120h110zM375 680v-120h-110v120h110z" />
    <glyph glyph-name="aring" unicode="&#xe5;" 
d="M290 240h-55q-13 0 -26.5 -4t-24 -14.5t-17.5 -28t-7 -43.5t7 -43.5t17.5 -28t24 -14.5t26.5 -4q19 0 33 6t22 14v160zM195 -10q-32 0 -60 6.5t-49 24.5t-33.5 49t-12.5 80t12.5 80t34.5 49t52 24.5t66 6.5q23 0 44.5 -3t40.5 -7v40q0 60 -28 80t-77 20h-100v50
q23 8 56.5 14t63.5 6q51 0 89 -7t64 -25.5t39 -52t13 -85.5v-340h-85l-15 30h-5q-16 -15 -42 -27.5t-68 -12.5zM270 620q0 15 -9.5 22.5t-20.5 7.5t-20.5 -7.5t-9.5 -22.5t9.5 -22.5t20.5 -7.5t20.5 7.5t9.5 22.5zM335 620q0 -38 -26.5 -61.5t-68.5 -23.5t-68.5 23.5
t-26.5 61.5t26.5 61.5t68.5 23.5t68.5 -23.5t26.5 -61.5z" />
    <glyph glyph-name="ae" unicode="&#xe6;" horiz-adv-x="710" 
d="M290 220h-55q-13 0 -26.5 -4t-24 -13.5t-17.5 -25t-7 -37.5q0 -23 7 -38t17.5 -24.5t24 -13.5t26.5 -4q19 0 33 6t22 14v140zM550 290q0 47 -5.5 77t-14.5 47.5t-22 24t-28 6.5t-28 -6.5t-22 -24t-14.5 -47.5t-5.5 -77h140zM205 -10q-36 0 -66 6.5t-52 23.5t-34.5 46
t-12.5 74t12.5 74t34.5 46t52 23.5t66 6.5q23 0 44.5 -3t40.5 -7v60q0 60 -28 80t-77 20h-100v50q23 8 56.5 14t63.5 6q57 0 92 -17t58 -43q23 26 53 43t72 17q45 0 80.5 -14.5t59.5 -46t37 -81t13 -118.5v-30h-260q0 -90 30.5 -125t94.5 -35h110v-50q-23 -8 -57.5 -14
t-72.5 -6q-64 0 -100.5 17t-59.5 43q-11 -13 -24.5 -24t-31.5 -19t-41 -12.5t-53 -4.5z" />
    <glyph glyph-name="ccedilla" unicode="&#xe7;" horiz-adv-x="395" 
d="M250 -30q45 0 67.5 -20t22.5 -50t-25.5 -50t-74.5 -20q-19 0 -33 2t-23 5q-11 4 -19 8v34h65q23 0 29 6.5t6 14.5t-5.5 14.5t-24.5 6.5h-55v77q-70 17 -105 76t-35 176q0 71 13 120.5t38.5 80.5t62.5 45t86 14q38 0 72.5 -6t57.5 -14v-50h-110q-23 0 -41 -8.5t-31.5 -30
t-20.5 -58.5t-7 -93t7.5 -93t21.5 -58.5t34.5 -30t46.5 -8.5h110v-50q-23 -8 -57.5 -14t-72.5 -6q-5 0 -8.5 0.5t-7.5 0.5l1 -1v-20h15z" />
    <glyph glyph-name="egrave" unicode="&#xe8;" horiz-adv-x="460" 
d="M420 215h-260q0 -86 30.5 -120.5t94.5 -34.5h110v-50q-23 -8 -57.5 -14t-72.5 -6q-58 0 -100.5 14t-70 45t-41 80.5t-13.5 120.5t13 120.5t37 80.5t59.5 45t80.5 14t80.5 -14t59.5 -45t37 -80.5t13 -120.5v-35zM300 285q0 49 -5.5 80t-14.5 49t-22 24.5t-28 6.5t-28 -6.5
t-22 -24.5t-14.5 -49t-5.5 -80h140zM195 560l-75 130h115l35 -130h-75z" />
    <glyph glyph-name="eacute" unicode="&#xe9;" horiz-adv-x="460" 
d="M420 215h-260q0 -86 30.5 -120.5t94.5 -34.5h110v-50q-23 -8 -57.5 -14t-72.5 -6q-58 0 -100.5 14t-70 45t-41 80.5t-13.5 120.5t13 120.5t37 80.5t59.5 45t80.5 14t80.5 -14t59.5 -45t37 -80.5t13 -120.5v-35zM300 285q0 49 -5.5 80t-14.5 49t-22 24.5t-28 6.5t-28 -6.5
t-22 -24.5t-14.5 -49t-5.5 -80h140zM185 560l35 130h115l-75 -130h-75z" />
    <glyph glyph-name="ecircumflex" unicode="&#xea;" horiz-adv-x="460" 
d="M420 215h-260q0 -86 30.5 -120.5t94.5 -34.5h110v-50q-23 -8 -57.5 -14t-72.5 -6q-58 0 -100.5 14t-70 45t-41 80.5t-13.5 120.5t13 120.5t37 80.5t59.5 45t80.5 14t80.5 -14t59.5 -45t37 -80.5t13 -120.5v-35zM300 285q0 49 -5.5 80t-14.5 49t-22 24.5t-28 6.5t-28 -6.5
t-22 -24.5t-14.5 -49t-5.5 -80h140zM100 550l80 130h105l80 -130h-77l-56 70l-56 -70h-76z" />
    <glyph glyph-name="edieresis" unicode="&#xeb;" horiz-adv-x="460" 
d="M420 215h-260q0 -86 30.5 -120.5t94.5 -34.5h110v-50q-23 -8 -57.5 -14t-72.5 -6q-58 0 -100.5 14t-70 45t-41 80.5t-13.5 120.5t13 120.5t37 80.5t59.5 45t80.5 14t80.5 -14t59.5 -45t37 -80.5t13 -120.5v-35zM300 285q0 49 -5.5 80t-14.5 49t-22 24.5t-28 6.5t-28 -6.5
t-22 -24.5t-14.5 -49t-5.5 -80h140zM205 680v-120h-110v120h110zM365 680v-120h-110v120h110z" />
    <glyph glyph-name="igrave" unicode="&#xec;" horiz-adv-x="260" 
d="M190 0h-120v500h120v-500zM95 560l-75 130h115l35 -130h-75z" />
    <glyph glyph-name="iacute" unicode="&#xed;" horiz-adv-x="260" 
d="M190 0h-120v500h120v-500zM90 560l35 130h115l-75 -130h-75z" />
    <glyph glyph-name="icircumflex" unicode="&#xee;" horiz-adv-x="245" 
d="M185 0h-120v500h120v-500zM-10 550l80 130h105l80 -130h-77l-56 70l-56 -70h-76z" />
    <glyph glyph-name="idieresis" unicode="&#xef;" horiz-adv-x="250" 
d="M185 0h-120v500h120v-500zM100 680v-120h-110v120h110zM260 680v-120h-110v120h110z" />
    <glyph glyph-name="eth" unicode="&#xf0;" horiz-adv-x="485" 
d="M355 611q38 -38 61.5 -105.5t23.5 -155.5v-135q0 -117 -51 -171t-149 -54t-149 54t-51 171t49.5 171t140.5 54q30 0 52.5 -7t37.5 -18q0 38 -5 70t-20 54l-50 -60l-50 41l55 70q-26 23 -71.5 42.5t-99.5 27.5l6 50q68 -4 125 -19t95 -41l55 67l50 -41zM320 350
q-8 8 -22.5 14t-37.5 6q-45 0 -72.5 -34.5t-27.5 -120.5q0 -45 7 -75.5t18 -49.5t25.5 -27t29.5 -8t29.5 8t25.5 27t18 49.5t7 75.5v135z" />
    <glyph glyph-name="ntilde" unicode="&#xf1;" horiz-adv-x="505" 
d="M285 510q32 0 60 -6.5t49 -24.5t33.5 -49t12.5 -80v-350h-120v350q0 26 -7 43.5t-18 28t-25.5 14.5t-29.5 4q-19 0 -33 -6t-22 -14v-420h-120v500h85l15 -30h5q16 15 43 27.5t72 12.5zM320 570q0 40 -25 40q-9 0 -18 -8l-19.5 -17t-23 -17t-29.5 -8t-31 6t-23.5 20
t-15 37t-5.5 57h60q0 -40 25 -40q9 0 18 8l19.5 17t23 17t29.5 8q34 0 54.5 -26.5t20.5 -93.5h-60z" />
    <glyph glyph-name="ograve" unicode="&#xf2;" horiz-adv-x="480" 
d="M240 445q-17 0 -31.5 -8.5t-25.5 -30.5t-17 -60t-6 -96t6 -96t17 -60t25.5 -30.5t31.5 -8.5t31.5 8.5t25.5 30.5t17 60t6 96t-6 96t-17 60t-25.5 30.5t-31.5 8.5zM240 510q49 0 86 -14t62.5 -45t38.5 -80.5t13 -120.5t-13 -120.5t-38.5 -80.5t-62.5 -45t-86 -14t-86 14
t-62.5 45t-38.5 80.5t-13 120.5t13 120.5t38.5 80.5t62.5 45t86 14zM205 560l-75 130h115l35 -130h-75z" />
    <glyph glyph-name="oacute" unicode="&#xf3;" horiz-adv-x="480" 
d="M240 445q-17 0 -31.5 -8.5t-25.5 -30.5t-17 -60t-6 -96t6 -96t17 -60t25.5 -30.5t31.5 -8.5t31.5 8.5t25.5 30.5t17 60t6 96t-6 96t-17 60t-25.5 30.5t-31.5 8.5zM240 510q49 0 86 -14t62.5 -45t38.5 -80.5t13 -120.5t-13 -120.5t-38.5 -80.5t-62.5 -45t-86 -14t-86 14
t-62.5 45t-38.5 80.5t-13 120.5t13 120.5t38.5 80.5t62.5 45t86 14zM195 560l35 130h115l-75 -130h-75z" />
    <glyph glyph-name="ocircumflex" unicode="&#xf4;" horiz-adv-x="480" 
d="M240 445q-17 0 -31.5 -8.5t-25.5 -30.5t-17 -60t-6 -96t6 -96t17 -60t25.5 -30.5t31.5 -8.5t31.5 8.5t25.5 30.5t17 60t6 96t-6 96t-17 60t-25.5 30.5t-31.5 8.5zM240 510q49 0 86 -14t62.5 -45t38.5 -80.5t13 -120.5t-13 -120.5t-38.5 -80.5t-62.5 -45t-86 -14t-86 14
t-62.5 45t-38.5 80.5t-13 120.5t13 120.5t38.5 80.5t62.5 45t86 14zM109 550l80 130h105l80 -130h-77l-56 70l-56 -70h-76z" />
    <glyph glyph-name="otilde" unicode="&#xf5;" horiz-adv-x="480" 
d="M240 445q-17 0 -31.5 -8.5t-25.5 -30.5t-17 -60t-6 -96t6 -96t17 -60t25.5 -30.5t31.5 -8.5t31.5 8.5t25.5 30.5t17 60t6 96t-6 96t-17 60t-25.5 30.5t-31.5 8.5zM240 510q49 0 86 -14t62.5 -45t38.5 -80.5t13 -120.5t-13 -120.5t-38.5 -80.5t-62.5 -45t-86 -14t-86 14
t-62.5 45t-38.5 80.5t-13 120.5t13 120.5t38.5 80.5t62.5 45t86 14zM305 570q0 40 -25 40q-9 0 -18 -8l-19.5 -17t-23 -17t-29.5 -8t-31 6t-23.5 20t-15 37t-5.5 57h60q0 -40 25 -40q9 0 18 8l19.5 17t23 17t29.5 8q34 0 54.5 -26.5t20.5 -93.5h-60z" />
    <glyph glyph-name="odieresis" unicode="&#xf6;" horiz-adv-x="480" 
d="M240 445q-17 0 -31.5 -8.5t-25.5 -30.5t-17 -60t-6 -96t6 -96t17 -60t25.5 -30.5t31.5 -8.5t31.5 8.5t25.5 30.5t17 60t6 96t-6 96t-17 60t-25.5 30.5t-31.5 8.5zM240 510q49 0 86 -14t62.5 -45t38.5 -80.5t13 -120.5t-13 -120.5t-38.5 -80.5t-62.5 -45t-86 -14t-86 14
t-62.5 45t-38.5 80.5t-13 120.5t13 120.5t38.5 80.5t62.5 45t86 14zM215 680v-120h-110v120h110zM375 680v-120h-110v120h110z" />
    <glyph glyph-name="divide" unicode="&#xf7;" horiz-adv-x="450" 
d="M30 345h390v-90h-390v90zM275 195v-110h-100v110h100zM275 515v-110h-100v110h100z" />
    <glyph glyph-name="oslash" unicode="&#xf8;" horiz-adv-x="490" 
d="M65 104q-20 58 -20 146q0 71 13 120.5t38.5 80.5t62.5 45t86 14q47 0 83 -12.5t61 -41.5l31 34l45 -50l-41 -45q21 -56 21 -145q0 -71 -13 -120.5t-38.5 -80.5t-62.5 -45t-86 -14q-48 0 -83.5 12.5t-61.5 40.5l-30 -33l-45 50zM325 250v19t-1 18l-148 -161
q11 -41 28.5 -56t40.5 -15q17 0 31.5 8.5t25.5 30.5t17 60t6 96zM245 445q-17 0 -31.5 -8.5t-25.5 -30.5t-17 -60t-6 -96v-37l148 161q-11 41 -28.5 56t-39.5 15z" />
    <glyph glyph-name="ugrave" unicode="&#xf9;" horiz-adv-x="505" 
d="M220 -10q-32 0 -60 6.5t-49 24.5t-33.5 49t-12.5 80v350h120v-350q0 -26 7 -43.5t18 -28t25.5 -14.5t29.5 -4q19 0 33 6t22 14v420h120v-500h-85l-15 30h-5q-16 -15 -43 -27.5t-72 -12.5zM225 560l-75 130h115l35 -130h-75z" />
    <glyph glyph-name="uacute" unicode="&#xfa;" horiz-adv-x="505" 
d="M220 -10q-32 0 -60 6.5t-49 24.5t-33.5 49t-12.5 80v350h120v-350q0 -26 7 -43.5t18 -28t25.5 -14.5t29.5 -4q19 0 33 6t22 14v420h120v-500h-85l-15 30h-5q-16 -15 -43 -27.5t-72 -12.5zM210 560l35 130h115l-75 -130h-75z" />
    <glyph glyph-name="ucircumflex" unicode="&#xfb;" horiz-adv-x="505" 
d="M220 -10q-32 0 -60 6.5t-49 24.5t-33.5 49t-12.5 80v350h120v-350q0 -26 7 -43.5t18 -28t25.5 -14.5t29.5 -4q19 0 33 6t22 14v420h120v-500h-85l-15 30h-5q-16 -15 -43 -27.5t-72 -12.5zM123 550l80 130h105l80 -130h-77l-56 70l-56 -70h-76z" />
    <glyph glyph-name="udieresis" unicode="&#xfc;" horiz-adv-x="505" 
d="M220 -10q-32 0 -60 6.5t-49 24.5t-33.5 49t-12.5 80v350h120v-350q0 -26 7 -43.5t18 -28t25.5 -14.5t29.5 -4q19 0 33 6t22 14v420h120v-500h-85l-15 30h-5q-16 -15 -43 -27.5t-72 -12.5zM230 680v-120h-110v120h110zM390 680v-120h-110v120h110z" />
    <glyph glyph-name="yacute" unicode="&#xfd;" horiz-adv-x="505" 
d="M320 20q-38 -30 -100 -30q-32 0 -60 6.5t-49 24.5t-33.5 49t-12.5 80v350h120v-350q0 -26 7 -43.5t18 -28t25.5 -14.5t29.5 -4q19 0 33 6t22 14v420h120v-460q0 -135 -53 -192.5t-162 -57.5q-38 0 -72.5 6t-57.5 14v50h110q56 0 85.5 35t29.5 125zM210 560l35 130h115
l-75 -130h-75z" />
    <glyph glyph-name="thorn" unicode="&#xfe;" horiz-adv-x="495" 
d="M70 700h120v-215q16 11 37.5 18t47.5 7q41 0 74.5 -14t57 -45t36 -80.5t12.5 -120.5t-12.5 -120.5t-36 -80.5t-57 -45t-74.5 -14q-26 0 -47.5 7t-37.5 18v-215h-120v900zM245 440q-19 0 -33 -6t-22 -14v-340q8 -8 22 -14t33 -6t35.5 8.5t28.5 30t19 58.5t7 93t-7 93
t-19 58.5t-28.5 30t-35.5 8.5z" />
    <glyph glyph-name="ydieresis" unicode="&#xff;" horiz-adv-x="505" 
d="M320 20q-38 -30 -100 -30q-32 0 -60 6.5t-49 24.5t-33.5 49t-12.5 80v350h120v-350q0 -26 7 -43.5t18 -28t25.5 -14.5t29.5 -4q19 0 33 6t22 14v420h120v-460q0 -135 -53 -192.5t-162 -57.5q-38 0 -72.5 6t-57.5 14v50h110q56 0 85.5 35t29.5 125zM230 680v-120h-110v120
h110zM390 680v-120h-110v120h110z" />
    <glyph glyph-name="Amacron" unicode="&#x100;" horiz-adv-x="540" 
d="M150 830h240v-70h-240v70zM184 175l-44 -175h-125l180 700h150l180 -700h-125l-44 175h-172zM272 540h-4l-68 -285h139z" />
    <glyph glyph-name="amacron" unicode="&#x101;" 
d="M290 240h-55q-13 0 -26.5 -4t-24 -14.5t-17.5 -28t-7 -43.5t7 -43.5t17.5 -28t24 -14.5t26.5 -4q19 0 33 6t22 14v160zM195 -10q-32 0 -60 6.5t-49 24.5t-33.5 49t-12.5 80t12.5 80t34.5 49t52 24.5t66 6.5q23 0 44.5 -3t40.5 -7v40q0 60 -28 80t-77 20h-100v50
q23 8 56.5 14t63.5 6q51 0 89 -7t64 -25.5t39 -52t13 -85.5v-340h-85l-15 30h-5q-16 -15 -42 -27.5t-68 -12.5zM125 640h240v-70h-240v70z" />
    <glyph glyph-name="Aogonek" unicode="&#x104;" horiz-adv-x="540" 
d="M183 175l-44 -175h-125l180 700h150l180 -700h-55v-45q0 -55 54 -55h36v-45l-21 -8q-10 -3 -24 -5t-31 -2q-42 0 -66 23t-24 57q0 19 4 33.5t9 25.5q5 12 13 21h-20l-44 175h-172zM271 540h-4l-68 -285h139z" />
    <glyph glyph-name="aogonek" unicode="&#x105;" horiz-adv-x="471" 
d="M325 0l-15 30h-5q-16 -15 -42 -27.5t-68 -12.5q-32 0 -60 6.5t-49 24.5t-33.5 49t-12.5 80t12.5 80t34.5 49t52 24.5t66 6.5q23 0 44.5 -3t40.5 -7v40q0 60 -28 80t-77 20h-100v50q23 8 56.5 14t63.5 6q51 0 89 -7t64 -25.5t39 -52t13 -85.5v-340h-24v-45q0 -55 54 -55
h36v-45l-21 -8q-10 -3 -24 -5t-31 -2q-42 0 -66 23t-24 57q0 19 4 33.5t9 25.5q5 12 13 21h-11zM290 240h-55q-13 0 -26.5 -4t-24 -14.5t-17.5 -28t-7 -43.5t7 -43.5t17.5 -28t24 -14.5t26.5 -4q19 0 33 6t22 14v160z" />
    <glyph glyph-name="Cacute" unicode="&#x106;" horiz-adv-x="455" 
d="M280 -10q-58 0 -102 17t-73.5 58t-44.5 110.5t-15 174.5t15 174.5t43.5 110.5t70.5 58t96 17q53 0 95 -6t65 -14v-55h-120q-32 0 -58.5 -13t-46 -45t-30 -87.5t-10.5 -139.5t11 -139.5t31 -87.5t48.5 -45t64.5 -13h120v-55q-23 -8 -65 -14t-95 -6zM225 750l35 130h115
l-75 -130h-75z" />
    <glyph glyph-name="cacute" unicode="&#x107;" horiz-adv-x="395" 
d="M260 440q-23 0 -41 -8.5t-31.5 -30t-20.5 -58.5t-7 -93t7.5 -93t21.5 -58.5t34.5 -30t46.5 -8.5h110v-50q-23 -8 -57.5 -14t-72.5 -6q-53 0 -92 14t-65.5 45t-39.5 80.5t-13 120.5t13 120.5t38.5 80.5t62.5 45t86 14q38 0 72.5 -6t57.5 -14v-50h-110zM190 560l35 130h115
l-75 -130h-75z" />
    <glyph glyph-name="Ccaron" unicode="&#x10c;" horiz-adv-x="455" 
d="M280 -10q-58 0 -102 17t-73.5 58t-44.5 110.5t-15 174.5t15 174.5t43.5 110.5t70.5 58t96 17q53 0 95 -6t65 -14v-55h-120q-32 0 -58.5 -13t-46 -45t-30 -87.5t-10.5 -139.5t11 -139.5t31 -87.5t48.5 -45t64.5 -13h120v-55q-23 -8 -65 -14t-95 -6zM209 890l56 -70l56 70
h77l-80 -130h-105l-80 130h76z" />
    <glyph glyph-name="ccaron" unicode="&#x10d;" horiz-adv-x="395" 
d="M260 440q-23 0 -41 -8.5t-31.5 -30t-20.5 -58.5t-7 -93t7.5 -93t21.5 -58.5t34.5 -30t46.5 -8.5h110v-50q-23 -8 -57.5 -14t-72.5 -6q-53 0 -92 14t-65.5 45t-39.5 80.5t-13 120.5t13 120.5t38.5 80.5t62.5 45t86 14q38 0 72.5 -6t57.5 -14v-50h-110zM166 690l56 -70
l56 70h77l-80 -130h-105l-80 130h76z" />
    <glyph glyph-name="Emacron" unicode="&#x112;" 
d="M190 80h245v-80h-365v700h365v-80h-245v-215h215v-80h-215v-245zM135 830h240v-70h-240v70z" />
    <glyph glyph-name="emacron" unicode="&#x113;" horiz-adv-x="460" 
d="M420 215h-260q0 -86 30.5 -120.5t94.5 -34.5h110v-50q-23 -8 -57.5 -14t-72.5 -6q-58 0 -100.5 14t-70 45t-41 80.5t-13.5 120.5t13 120.5t37 80.5t59.5 45t80.5 14t80.5 -14t59.5 -45t37 -80.5t13 -120.5v-35zM300 285q0 49 -5.5 80t-14.5 49t-22 24.5t-28 6.5t-28 -6.5
t-22 -24.5t-14.5 -49t-5.5 -80h140zM115 640h240v-70h-240v70z" />
    <glyph glyph-name="Edotaccent" unicode="&#x116;" 
d="M190 80h245v-80h-365v700h365v-80h-245v-215h215v-80h-215v-245zM315 880v-120h-110v120h110z" />
    <glyph glyph-name="edotaccent" unicode="&#x117;" horiz-adv-x="460" 
d="M420 215h-260q0 -86 30.5 -120.5t94.5 -34.5h110v-50q-23 -8 -57.5 -14t-72.5 -6q-58 0 -100.5 14t-70 45t-41 80.5t-13.5 120.5t13 120.5t37 80.5t59.5 45t80.5 14t80.5 -14t59.5 -45t37 -80.5t13 -120.5v-35zM300 285q0 49 -5.5 80t-14.5 49t-22 24.5t-28 6.5t-28 -6.5
t-22 -24.5t-14.5 -49t-5.5 -80h140zM285 680v-120h-110v120h110z" />
    <glyph glyph-name="Eogonek" unicode="&#x118;" horiz-adv-x="465" 
d="M70 0v700h365v-80h-245v-215h215v-80h-215v-245h245v-80h-50v-45q0 -55 54 -55h36v-45l-21 -8q-10 -3 -24 -5t-31 -2q-42 0 -66 23t-24 57q0 19 4 33.5t9 25.5q5 12 13 21h-265z" />
    <glyph glyph-name="eogonek" unicode="&#x119;" horiz-adv-x="460" 
d="M420 215h-260q0 -86 30.5 -120.5t94.5 -34.5h110v-50q-22 -8 -55.5 -13.5t-69.5 -6.5v-35q0 -55 54 -55h36v-45l-21 -8q-10 -3 -24 -5t-31 -2q-42 0 -66 23t-24 57q0 27 7.5 46t12.5 27q-89 11 -131.5 71t-42.5 186q0 71 13 120.5t37 80.5t59.5 45t80.5 14t80.5 -14
t59.5 -45t37 -80.5t13 -120.5v-35zM300 285q0 49 -5.5 80t-14.5 49t-22 24.5t-28 6.5t-28 -6.5t-22 -24.5t-14.5 -49t-5.5 -80h140z" />
    <glyph glyph-name="Gbreve" unicode="&#x11e;" horiz-adv-x="530" 
d="M465 10q-23 -8 -65.5 -14t-99.5 -6q-66 0 -114 17t-79.5 58t-46.5 110.5t-15 174.5t15 174.5t44.5 110.5t73.5 58t102 17q53 0 95 -6t65 -14v-55h-130q-32 0 -58.5 -13t-46 -45t-30 -87.5t-10.5 -139.5t11 -139.5t31 -87.5t48.5 -45t64.5 -13h25v315h120v-370zM280 840
q30 0 55 15t40 30l50 -50q-23 -38 -59.5 -59t-85.5 -21t-85.5 21t-59.5 59l50 50q15 -15 40 -30t55 -15z" />
    <glyph glyph-name="gbreve" unicode="&#x11f;" horiz-adv-x="490" 
d="M305 15q-15 -11 -37 -18t-48 -7q-41 0 -74.5 14t-57 45t-36 80.5t-12.5 120.5t13.5 120.5t40.5 80.5t68.5 45t97.5 14q53 0 90 -7.5t75 -22.5v-440q0 -135 -53 -192.5t-162 -57.5q-38 0 -72.5 6t-57.5 14v50h110q56 0 85.5 34.5t29.5 120.5zM305 440h-45q-23 0 -41 -8.5
t-31.5 -30t-20.5 -58.5t-7 -93t7 -93t19 -58.5t28.5 -30t35.5 -8.5t33 6t22 14v360zM240 650q30 0 52.5 12.5t37.5 27.5l50 -50q-23 -34 -57 -54.5t-83 -20.5t-83 20.5t-57 54.5l50 50q15 -15 37.5 -27.5t52.5 -12.5z" />
    <glyph glyph-name="Gcommaaccent" unicode="&#x122;" horiz-adv-x="525" 
d="M465 10q-23 -8 -65.5 -14t-99.5 -6q-66 0 -114 17t-79.5 58t-46.5 110.5t-15 174.5t15 174.5t44.5 110.5t73.5 58t102 17q53 0 95 -6t65 -14v-55h-130q-32 0 -58.5 -13t-46 -45t-30 -87.5t-10.5 -139.5t11 -139.5t31 -87.5t48.5 -45t64.5 -13h25v315h120v-370zM230 -70
h110l-35 -150h-75v150z" />
    <glyph glyph-name="gcommaaccent" unicode="&#x123;" horiz-adv-x="490" 
d="M305 15q-15 -11 -37 -18t-48 -7q-41 0 -74.5 14t-57 45t-36 80.5t-12.5 120.5t13.5 120.5t40.5 80.5t68.5 45t97.5 14q53 0 90 -7.5t75 -22.5v-440q0 -135 -53 -192.5t-162 -57.5q-38 0 -72.5 6t-57.5 14v50h110q56 0 85.5 34.5t29.5 120.5zM305 440h-45q-23 0 -41 -8.5
t-31.5 -30t-20.5 -58.5t-7 -93t7 -93t19 -58.5t28.5 -30t35.5 -8.5t33 6t22 14v360zM300 570h-110l35 150h75v-150z" />
    <glyph glyph-name="hbar" unicode="&#x127;" horiz-adv-x="515" 
d="M195 450q19 15 44.5 22.5t55.5 7.5q32 0 60 -6.5t49 -24.5t33.5 -49t12.5 -80v-320h-120v320q0 26 -7 43.5t-18 28t-25.5 14.5t-29.5 4q-19 0 -33 -6t-22 -14v-390h-120v536h-55v74h55v90h120v-90h135v-54q-11 -4 -25.5 -7.5t-30 -6.5t-31 -4.5t-28.5 -1.5h-20v-86z" />
    <glyph glyph-name="Itilde" unicode="&#x128;" horiz-adv-x="240" 
d="M60 700h120v-700h-120v700zM185 756q0 40 -25 40q-9 0 -18 -8l-19.5 -17t-23 -17t-29.5 -8t-31 6t-23.5 20t-15 37t-5.5 57h60q0 -40 25 -40q9 0 18 8l19.5 17t23 17t29.5 8q34 0 54.5 -26.5t20.5 -93.5h-60z" />
    <glyph glyph-name="itilde" unicode="&#x129;" horiz-adv-x="240" 
d="M180 0h-120v500h120v-500zM180 570q0 40 -25 40q-9 0 -18 -8l-19.5 -17t-23 -17t-29.5 -8t-31 6t-23.5 20t-15 37t-5.5 57h60q0 -40 25 -40q9 0 18 8l19.5 17t23 17t29.5 8q34 0 54.5 -26.5t20.5 -93.5h-60z" />
    <glyph glyph-name="Imacron" unicode="&#x12a;" horiz-adv-x="230" 
d="M55 700h120v-700h-120v700zM-5 820h240v-70h-240v70z" />
    <glyph glyph-name="imacron" unicode="&#x12b;" horiz-adv-x="240" 
d="M180 0h-120v500h120v-500zM0 640h240v-70h-240v70z" />
    <glyph glyph-name="Iogonek" unicode="&#x12e;" horiz-adv-x="226" 
d="M56 0v700h120v-700h-50v-45q0 -55 54 -55h36v-45l-21 -8q-10 -3 -24 -5t-31 -2q-42 0 -66 23t-24 57q0 19 4 33.5t9 25.5q5 12 13 21h-20z" />
    <glyph glyph-name="iogonek" unicode="&#x12f;" horiz-adv-x="226" 
d="M56 0v500h120v-500h-50v-45q0 -55 54 -55h36v-45l-21 -8q-10 -3 -24 -5t-31 -2q-42 0 -66 23t-24 57q0 19 4 33.5t9 25.5q5 12 13 21h-20zM176 680v-120h-120v120h120z" />
    <glyph glyph-name="Idotaccent" unicode="&#x130;" horiz-adv-x="260" 
d="M190 700v-700h-120v700h120zM185 880v-120h-110v120h110z" />
    <glyph glyph-name="dotlessi" unicode="&#x131;" horiz-adv-x="260" 
d="M190 0h-120v500h120v-500z" />
    <glyph glyph-name="ij" unicode="&#x133;" horiz-adv-x="490" 
d="M420 -40q0 -53 -12.5 -86t-33.5 -51.5t-49 -25.5t-60 -7q-30 0 -55.5 6t-44.5 14v50h70q26 0 45.5 23.5t19.5 76.5v465h-110v-425h-120v500h350v-540zM420 680v-120h-120v120h120zM190 680v-120h-120v120h120z" />
    <glyph glyph-name="Jcircumflex" unicode="&#x134;" horiz-adv-x="373" 
d="M100 65q21 0 38 8.5t30 28.5t20 53.5t7 84.5v460h120v-460q0 -135 -53 -192.5t-162 -57.5q-30 0 -55.5 6t-44.5 14v55h100zM123 740l80 130h105l80 -130h-77l-56 70l-56 -70h-76z" />
    <glyph glyph-name="jcircumflex" unicode="&#x135;" horiz-adv-x="260" 
d="M195 -40q0 -53 -12.5 -86t-33.5 -51.5t-49 -25.5t-60 -7q-30 0 -55.5 6t-44.5 14v50h70q26 0 45.5 23.5t19.5 76.5v540h120v-540zM0 550l80 130h105l80 -130h-77l-56 70l-56 -70h-76z" />
    <glyph glyph-name="Kcommaaccent" unicode="&#x136;" horiz-adv-x="520" 
d="M215 -50h110l-35 -150h-75v150zM510 0h-135l-185 330v-330h-120v700h120v-320l165 320h135l-185 -345z" />
    <glyph glyph-name="kcommaaccent" unicode="&#x137;" horiz-adv-x="460" 
d="M190 0h-120v700h120v-415l120 215h130l-135 -235l145 -265h-130l-130 245v-245zM195 -60h110l-35 -150h-75v150z" />
    <glyph glyph-name="kgreenlandic" unicode="&#x138;" horiz-adv-x="460" 
d="M190 0h-120v500h120v-215l120 215h130l-135 -235l145 -265h-130l-130 245v-245z" />
    <glyph glyph-name="Lcommaaccent" unicode="&#x13b;" horiz-adv-x="445" 
d="M190 80h245v-80h-365v700h120v-620zM205 -60h110l-35 -150h-75v150z" />
    <glyph glyph-name="lcommaaccent" unicode="&#x13c;" horiz-adv-x="260" 
d="M70 700h120v-700h-120v700zM75 -60h110l-35 -150h-75v150z" />
    <glyph glyph-name="ldot" unicode="&#x140;" horiz-adv-x="430" 
d="M70 700h120v-700h-120v700zM380 410v-120h-120v120h120z" />
    <glyph glyph-name="Lslash" unicode="&#x141;" horiz-adv-x="445" 
d="M190 448l45 32l45 -60l-90 -65v-275h245v-80h-365v270l-35 -25l-45 60l80 57v338h120v-252z" />
    <glyph glyph-name="lslash" unicode="&#x142;" horiz-adv-x="290" 
d="M80 362v338h120v-252l45 32l45 -60l-90 -65v-355h-120v270l-35 -25l-45 60z" />
    <glyph glyph-name="Nacute" unicode="&#x143;" horiz-adv-x="570" 
d="M190 460h-5v-460h-115v700h120l190 -460h5v460h115v-700h-120zM245 750l35 130h115l-75 -130h-75z" />
    <glyph glyph-name="nacute" unicode="&#x144;" horiz-adv-x="505" 
d="M285 510q32 0 60 -6.5t49 -24.5t33.5 -49t12.5 -80v-350h-120v350q0 26 -7 43.5t-18 28t-25.5 14.5t-29.5 4q-19 0 -33 -6t-22 -14v-420h-120v500h85l15 -30h5q16 15 43 27.5t72 12.5zM210 560l35 130h115l-75 -130h-75z" />
    <glyph glyph-name="Ncommaaccent" unicode="&#x145;" horiz-adv-x="570" 
d="M190 460h-5v-460h-115v700h120l190 -460h5v460h115v-700h-120zM225 -50h110l-35 -150h-75v150z" />
    <glyph glyph-name="ncommaaccent" unicode="&#x146;" horiz-adv-x="505" 
d="M285 510q32 0 60 -6.5t49 -24.5t33.5 -49t12.5 -80v-350h-120v350q0 26 -7 43.5t-18 28t-25.5 14.5t-29.5 4q-19 0 -33 -6t-22 -14v-420h-120v500h85l15 -30h5q16 15 43 27.5t72 12.5zM201 -60h110l-35 -150h-75v150z" />
    <glyph glyph-name="Omacron" unicode="&#x14c;" horiz-adv-x="550" 
d="M275 60q21 0 40.5 13t35 46t25 89t9.5 142t-9.5 142t-25 89t-35 46t-40.5 13t-40.5 -13t-35 -46t-25 -89t-9.5 -142t9.5 -142t25 -89t35 -46t40.5 -13zM275 710q52 0 94.5 -18.5t72.5 -60.5t46.5 -111t16.5 -170t-16.5 -170t-46.5 -111t-72.5 -60.5t-94.5 -18.5
q-53 0 -95.5 18.5t-72.5 60.5t-46 111t-16 170t16 170t46 111t72.5 60.5t95.5 18.5zM155 830h240v-70h-240v70z" />
    <glyph glyph-name="omacron" unicode="&#x14d;" horiz-adv-x="480" 
d="M240 445q-17 0 -31.5 -8.5t-25.5 -30.5t-17 -60t-6 -96t6 -96t17 -60t25.5 -30.5t31.5 -8.5t31.5 8.5t25.5 30.5t17 60t6 96t-6 96t-17 60t-25.5 30.5t-31.5 8.5zM240 510q49 0 86 -14t62.5 -45t38.5 -80.5t13 -120.5t-13 -120.5t-38.5 -80.5t-62.5 -45t-86 -14t-86 14
t-62.5 45t-38.5 80.5t-13 120.5t13 120.5t38.5 80.5t62.5 45t86 14zM120 640h240v-70h-240v70z" />
    <glyph glyph-name="OE" unicode="&#x152;" horiz-adv-x="765" 
d="M725 700v-80h-245v-215h215v-80h-215v-245h245v-80h-380q-146 0 -225.5 85t-79.5 265t79.5 265t225.5 85h380zM360 620h-15q-43 0 -77.5 -14t-58.5 -46t-36.5 -83.5t-12.5 -126.5t12.5 -126.5t36.5 -83.5t58.5 -46t77.5 -14h15v540z" />
    <glyph glyph-name="oe" unicode="&#x153;" horiz-adv-x="740" 
d="M240 445q-17 0 -31.5 -8.5t-25.5 -30.5t-17 -60t-6 -96t6 -96t17 -60t25.5 -30.5t31.5 -8.5t31.5 8.5t25.5 30.5t17 60t6 96t-6 96t-17 60t-25.5 30.5t-31.5 8.5zM580 285q0 49 -5.5 80t-14.5 49t-22 24.5t-28 6.5t-28 -6.5t-22 -24.5t-14.5 -49t-5.5 -80h140zM510 510
q45 0 80.5 -14t59.5 -45t37 -80.5t13 -120.5v-35h-260q0 -86 30.5 -120.5t94.5 -34.5h110v-50q-23 -8 -57.5 -14t-72.5 -6q-71 0 -109.5 17t-60.5 43q-23 -26 -54.5 -43t-80.5 -17t-86 14t-62.5 45t-38.5 80.5t-13 120.5t13 120.5t38.5 80.5t62.5 45t86 14t80.5 -17
t54.5 -43q23 26 56.5 43t78.5 17z" />
    <glyph glyph-name="Racute" unicode="&#x154;" horiz-adv-x="535" 
d="M480 470q0 -51 -8 -87.5t-22.5 -62t-35 -42.5t-44.5 -28l135 -250h-135l-115 225h-65v-225h-120v690q38 11 78 15.5t97 4.5q62 0 106.5 -13.5t73 -42.5t42 -74.5t13.5 -109.5zM245 305q28 0 49.5 8t36 27.5t22 51t7.5 78.5t-7.5 78.5t-22 51t-36 27.5t-49.5 8h-55v-330
h55zM205 750l35 130h115l-75 -130h-75z" />
    <glyph glyph-name="Rcommaaccent" unicode="&#x156;" horiz-adv-x="535" 
d="M480 470q0 -51 -8 -87.5t-22.5 -62t-35 -42.5t-44.5 -28l135 -250h-135l-115 225h-65v-225h-120v690q38 11 78 15.5t97 4.5q62 0 106.5 -13.5t73 -42.5t42 -74.5t13.5 -109.5zM245 305q28 0 49.5 8t36 27.5t22 51t7.5 78.5t-7.5 78.5t-22 51t-36 27.5t-49.5 8h-55v-330
h55zM225 -50h110l-35 -150h-75v150z" />
    <glyph glyph-name="rcommaaccent" unicode="&#x157;" horiz-adv-x="360" 
d="M350 500v-85h-110q-19 0 -33 -6t-22 -14v-395h-120v500h85l15 -40h5q16 15 43 27.5t72 12.5h65zM71 -60h110l-35 -150h-75v150z" />
    <glyph glyph-name="Rcaron" unicode="&#x158;" horiz-adv-x="535" 
d="M480 470q0 -51 -8 -87.5t-22.5 -62t-35 -42.5t-44.5 -28l135 -250h-135l-115 225h-65v-225h-120v690q38 11 78 15.5t97 4.5q62 0 106.5 -13.5t73 -42.5t42 -74.5t13.5 -109.5zM245 305q28 0 49.5 8t36 27.5t22 51t7.5 78.5t-7.5 78.5t-22 51t-36 27.5t-49.5 8h-55v-330
h55zM189 880l56 -70l56 70h77l-80 -130h-105l-80 130h76z" />
    <glyph glyph-name="rcaron" unicode="&#x159;" horiz-adv-x="360" 
d="M350 500v-85h-110q-19 0 -33 -6t-22 -14v-395h-120v500h85l15 -40h5q16 15 43 27.5t72 12.5h65zM151 680l56 -70l56 70h77l-80 -130h-105l-80 130h76z" />
    <glyph glyph-name="Sacute" unicode="&#x15a;" horiz-adv-x="465" 
d="M30 530q0 83 51.5 131.5t153.5 48.5q53 0 95 -6t65 -14v-55h-140q-49 0 -77 -28t-28 -77q0 -44 21 -70t53 -44.5t68.5 -34.5t68.5 -40.5t53 -62t21 -98.5q0 -90 -56.5 -140t-183.5 -50q-53 0 -95 6t-65 14v55h140q75 0 107.5 29t32.5 86q0 41 -21 65.5t-53 42t-68.5 33.5
t-68.5 41.5t-53 64.5t-21 103zM190 760l35 130h115l-75 -130h-75z" />
    <glyph glyph-name="sacute" unicode="&#x15b;" horiz-adv-x="415" 
d="M165 560l35 130h115l-75 -130h-75zM150 380q0 -26 17.5 -42.5t43.5 -29t56.5 -24.5t56.5 -29.5t43.5 -45t17.5 -69.5q0 -45 -13 -74t-40 -46t-67.5 -23.5t-94.5 -6.5q-38 0 -72.5 6t-57.5 14v50h110q57 0 86 16t29 54q0 26 -17.5 42.5t-43.5 29t-56.5 24.5t-56.5 29.5
t-43.5 44.5t-17.5 70q0 41 13 68t37.5 43t61 22.5t83.5 6.5q38 0 72.5 -6t57.5 -14v-50h-110q-42 0 -68.5 -15t-26.5 -45z" />
    <glyph glyph-name="Scedilla" unicode="&#x15e;" horiz-adv-x="465" 
d="M255 -30q45 0 67.5 -20t22.5 -50t-25.5 -50t-74.5 -20q-19 0 -33 2t-23 5q-11 4 -19 8v34h65q23 0 29 6.5t6 14.5t-5.5 14.5t-24.5 6.5h-55v69q-50 1 -89.5 6.5t-60.5 13.5v55h140q75 0 107.5 29t32.5 86q0 41 -21 65.5t-53 42t-68.5 33.5t-68.5 41.5t-53 64.5t-21 103
q0 83 51.5 131.5t153.5 48.5q53 0 95 -6t65 -14v-55h-140q-49 0 -77 -28t-28 -77q0 -44 21 -70t53 -44.5t68.5 -34.5t68.5 -40.5t53 -62t21 -98.5q0 -82 -46 -131t-149 -57v-22h15z" />
    <glyph glyph-name="scedilla" unicode="&#x15f;" horiz-adv-x="415" 
d="M235 -30q45 0 67.5 -20t22.5 -50t-25.5 -50t-74.5 -20q-19 0 -33 2t-23 5q-11 4 -19 8v34h65q23 0 29 6.5t6 14.5t-5.5 14.5t-24.5 6.5h-55v69q-37 1 -70 6.5t-55 13.5v50h110q57 0 86 16t29 54q0 26 -17.5 42.5t-43.5 29t-56.5 24.5t-56.5 29.5t-43.5 44.5t-17.5 70
q0 41 13 68t37.5 43t61 22.5t83.5 6.5q38 0 72.5 -6t57.5 -14v-50h-110q-42 0 -68.5 -15t-26.5 -45q0 -26 17.5 -42.5t43.5 -29t56.5 -24.5t56.5 -29.5t43.5 -45t17.5 -69.5q0 -40 -10 -67t-30.5 -44t-51.5 -25.5t-73 -11.5v-22h15z" />
    <glyph glyph-name="Scaron" unicode="&#x160;" horiz-adv-x="465" 
d="M30 530q0 83 51.5 131.5t153.5 48.5q53 0 95 -6t65 -14v-55h-140q-49 0 -77 -28t-28 -77q0 -44 21 -70t53 -44.5t68.5 -34.5t68.5 -40.5t53 -62t21 -98.5q0 -90 -56.5 -140t-183.5 -50q-53 0 -95 6t-65 14v55h140q75 0 107.5 29t32.5 86q0 41 -21 65.5t-53 42t-68.5 33.5
t-68.5 41.5t-53 64.5t-21 103zM169 890l56 -70l56 70h77l-80 -130h-105l-80 130h76z" />
    <glyph glyph-name="scaron" unicode="&#x161;" horiz-adv-x="415" 
d="M144 690l56 -70l56 70h77l-80 -130h-105l-80 130h76zM150 380q0 -26 17.5 -42.5t43.5 -29t56.5 -24.5t56.5 -29.5t43.5 -45t17.5 -69.5q0 -45 -13 -74t-40 -46t-67.5 -23.5t-94.5 -6.5q-38 0 -72.5 6t-57.5 14v50h110q57 0 86 16t29 54q0 26 -17.5 42.5t-43.5 29
t-56.5 24.5t-56.5 29.5t-43.5 44.5t-17.5 70q0 41 13 68t37.5 43t61 22.5t83.5 6.5q38 0 72.5 -6t57.5 -14v-50h-110q-42 0 -68.5 -15t-26.5 -45z" />
    <glyph glyph-name="Umacron" unicode="&#x16a;" horiz-adv-x="550" 
d="M275 60q21 0 38 8.5t30 29t20 55t7 87.5v460h120v-460q0 -135 -53 -192.5t-162 -57.5t-162 57.5t-53 192.5v460h120v-460q0 -53 7 -87.5t20 -55t30 -29t38 -8.5zM155 830h240v-70h-240v70z" />
    <glyph glyph-name="umacron" unicode="&#x16b;" horiz-adv-x="505" 
d="M220 -10q-32 0 -60 6.5t-49 24.5t-33.5 49t-12.5 80v350h120v-350q0 -26 7 -43.5t18 -28t25.5 -14.5t29.5 -4q19 0 33 6t22 14v420h120v-500h-85l-15 30h-5q-16 -15 -43 -27.5t-72 -12.5zM134 630h240v-70h-240v70z" />
    <glyph glyph-name="Uogonek" unicode="&#x172;" horiz-adv-x="550" 
d="M275 60q21 0 38 8.5t30 29t20 55t7 87.5v460h120v-460q0 -64 -11.5 -109.5t-35.5 -75.5t-59.5 -45.5t-83.5 -18.5v-36q0 -55 54 -55h36v-45l-21 -8q-10 -3 -24 -5t-31 -2q-42 0 -66 23t-24 57q0 26 7 44t12 27q-92 7 -137.5 65.5t-45.5 183.5v460h120v-460q0 -53 7 -87.5
t20 -55t30 -29t38 -8.5z" />
    <glyph glyph-name="uogonek" unicode="&#x173;" horiz-adv-x="505" 
d="M355 0l-15 30h-5q-16 -15 -43 -27.5t-72 -12.5q-32 0 -60 6.5t-49 24.5t-33.5 49t-12.5 80v350h120v-350q0 -26 7 -43.5t18 -28t25.5 -14.5t29.5 -4q19 0 33 6t22 14v420h120v-500h-25v-45q0 -55 54 -55h36v-45l-21 -8q-10 -3 -24 -5t-31 -2q-42 0 -66 23t-24 57
q0 19 4 33.5t9 25.5q5 12 13 21h-10z" />
    <glyph glyph-name="Ydieresis" unicode="&#x178;" horiz-adv-x="480" 
d="M238 365h4l108 335h125l-175 -490v-210h-120v210l-175 490h125zM215 880v-120h-110v120h110zM375 880v-120h-110v120h110z" />
    <glyph glyph-name="Zacute" unicode="&#x179;" horiz-adv-x="435" 
d="M175 750l35 130h115l-75 -130h-75zM155 80h255v-80h-390v75l260 545h-255v80h390v-75z" />
    <glyph glyph-name="zacute" unicode="&#x17a;" horiz-adv-x="400" 
d="M155 560l35 130h115l-75 -130h-75zM380 430l-220 -355h215v-75h-355v70l220 355h-210v75h350v-70z" />
    <glyph glyph-name="Zdotaccent" unicode="&#x17b;" horiz-adv-x="435" 
d="M275 880v-120h-110v120h110zM155 80h255v-80h-390v75l260 545h-255v80h390v-75z" />
    <glyph glyph-name="zdotaccent" unicode="&#x17c;" horiz-adv-x="400" 
d="M265 680v-120h-110v120h110zM380 430l-220 -355h215v-75h-355v70l220 355h-210v75h350v-70z" />
    <glyph glyph-name="Zcaron" unicode="&#x17d;" horiz-adv-x="435" 
d="M174 890l56 -70l56 70h77l-80 -130h-105l-80 130h76zM155 80h255v-80h-390v75l260 545h-255v80h390v-75z" />
    <glyph glyph-name="zcaron" unicode="&#x17e;" horiz-adv-x="400" 
d="M154 690l56 -70l56 70h77l-80 -130h-105l-80 130h76zM380 430l-220 -355h215v-75h-355v70l220 355h-210v75h350v-70z" />
    <glyph glyph-name="florin" unicode="&#x192;" horiz-adv-x="340" 
d="M75 415h-55v75h55v40q0 52 12.5 85.5t33.5 52t49 25.5t60 7q15 0 32 -1.5t33.5 -4.5t31 -6.5t23.5 -7.5v-50h-80q-15 0 -28.5 -4.5t-24 -15.5t-16.5 -30.5t-6 -49.5v-40h135v-55q-23 -8 -57.5 -14t-72.5 -6h-5v-455q0 -53 -12.5 -86t-33.5 -51.5t-49 -25.5t-60 -7
q-30 0 -60.5 6t-49.5 14v50h70q15 0 28.5 4.5t24 15.5t16.5 30.5t6 49.5v455z" />
    <glyph glyph-name="circumflex" unicode="&#x2c6;" horiz-adv-x="305" 
d="M20 550l80 130h105l80 -130h-77l-56 70l-56 -70h-76z" />
    <glyph glyph-name="caron" unicode="&#x2c7;" horiz-adv-x="305" 
d="M96 690l56 -70l56 70h77l-80 -130h-105l-80 130h76z" />
    <glyph glyph-name="dotaccent" unicode="&#x2d9;" horiz-adv-x="150" 
d="M130 680v-120h-110v120h110z" />
    <glyph glyph-name="ogonek" unicode="&#x2db;" horiz-adv-x="206" 
d="M96 0v-45q0 -55 54 -55h36v-45l-21 -8q-10 -3 -24 -5t-31 -2q-42 0 -66 23t-24 57q0 19 4 33.5t9 25.5q5 12 13 21h50z" />
    <glyph glyph-name="tilde" unicode="&#x2dc;" horiz-adv-x="290" 
d="M210 570q0 40 -25 40q-9 0 -18 -8l-19.5 -17t-23 -17t-29.5 -8t-31 6t-23.5 20t-15 37t-5.5 57h60q0 -40 25 -40q9 0 18 8l19.5 17t23 17t29.5 8q34 0 54.5 -26.5t20.5 -93.5h-60z" />
    <glyph glyph-name="afii10023" unicode="&#x401;" 
d="M190 80h245v-80h-365v700h365v-80h-245v-215h215v-80h-215v-245zM225 880v-120h-110v120h110zM385 880v-120h-110v120h110z" />
    <glyph glyph-name="afii10051" unicode="&#x402;" horiz-adv-x="575" 
d="M415 245q0 115 -120 115h-55v-360h-120v620h-120v80h380v-80h-140v-190q19 4 47.5 7t47.5 3q98 0 149 -50.5t51 -144.5v-85q0 -83 -41.5 -126.5t-113.5 -43.5q-23 0 -44 4.5t-36 15.5v50h50q26 0 45.5 23.5t19.5 76.5v85z" />
    <glyph glyph-name="afii10052" unicode="&#x403;" horiz-adv-x="435" 
d="M195 750l35 130h115l-75 -130h-75zM70 700h345v-80h-225v-620h-120v700z" />
    <glyph glyph-name="afii10053" unicode="&#x404;" horiz-adv-x="455" 
d="M370 320h-204q1 -75 13 -124t32 -78.5t47.5 -41t61.5 -11.5h120v-55q-23 -8 -65 -14t-95 -6q-58 0 -102 17t-73.5 58t-44.5 110.5t-15 174.5t15 174.5t43.5 110.5t70.5 58t96 17q53 0 95 -6t65 -14v-55h-120q-30 0 -55 -10.5t-43.5 -37.5t-30.5 -72.5t-15 -114.5h204v-80
z" />
    <glyph glyph-name="afii10054" unicode="&#x405;" horiz-adv-x="465" 
d="M30 530q0 83 51.5 131.5t153.5 48.5q53 0 95 -6t65 -14v-55h-140q-49 0 -77 -28t-28 -77q0 -44 21 -70t53 -44.5t68.5 -34.5t68.5 -40.5t53 -62t21 -98.5q0 -90 -56.5 -140t-183.5 -50q-53 0 -95 6t-65 14v55h140q75 0 107.5 29t32.5 86q0 41 -21 65.5t-53 42t-68.5 33.5
t-68.5 41.5t-53 64.5t-21 103z" />
    <glyph glyph-name="afii10055" unicode="&#x406;" horiz-adv-x="260" 
d="M70 700h120v-700h-120v700z" />
    <glyph glyph-name="afii10056" unicode="&#x407;" horiz-adv-x="250" 
d="M185 700v-700h-120v700h120zM100 880v-120h-110v120h110zM260 880v-120h-110v120h110z" />
    <glyph glyph-name="afii10057" unicode="&#x408;" horiz-adv-x="375" 
d="M100 65q21 0 38 8.5t30 28.5t20 53.5t7 84.5v460h120v-460q0 -135 -53 -192.5t-162 -57.5q-30 0 -55.5 6t-44.5 14v55h100z" />
    <glyph glyph-name="afii10058" unicode="&#x409;" horiz-adv-x="810" 
d="M570 430q102 0 153.5 -54t51.5 -171q0 -109 -55.5 -162t-179.5 -53q-57 0 -97 4.5t-78 15.5v610h-129l-21 -410q-3 -60 -15 -102t-30.5 -68t-44 -38t-55.5 -12q-32 0 -52 5q-11 2 -18 5v55q19 0 35 8t29 26.5t21 48t10 72.5l25 490h365v-280q9 2 21.5 3.5l24.5 3
t22.5 2.5t16.5 1zM485 350v-285h55q57 0 86 32.5t29 107.5q0 41 -7.5 69t-22 45t-36 24t-49.5 7h-55z" />
    <glyph glyph-name="afii10059" unicode="&#x40a;" horiz-adv-x="815" 
d="M575 410q205 0 205 -215q0 -101 -55.5 -153t-179.5 -52q-57 0 -97 4.5t-78 15.5v320h-180v-330h-120v700h120v-290h180v290h120v-300q9 2 21.5 3.5l24.5 3t22.5 2.5t16.5 1zM490 330v-265h55q57 0 86 31t29 99q0 75 -29 105t-86 30h-55z" />
    <glyph glyph-name="afii10060" unicode="&#x40b;" horiz-adv-x="580" 
d="M335 445q105 0 152.5 -47.5t47.5 -152.5v-245h-120v245q0 120 -120 120h-55v-365h-120v620h-120v80h380v-80h-140v-185q19 4 47.5 7t47.5 3z" />
    <glyph glyph-name="afii10061" unicode="&#x40c;" horiz-adv-x="520" 
d="M310 363q15 -5 30 -13.5t28.5 -23t24 -35.5t17.5 -51l30 -130q5 -23 23 -39t52 -16v-55q-7 -3 -18 -5q-20 -5 -52 -5q-57 0 -86.5 30t-43.5 90l-30 130q-11 49 -30 67t-45 18h-20v-325h-120v700h120v-295h20q19 0 35 18t30 67l30 100q18 60 46 90t84 30q17 0 30 -1.5
t22 -3.5l18 -5v-55q-34 0 -50.5 -14.5t-24.5 -40.5l-30 -100q-18 -60 -39 -86.5t-51 -36.5v-4zM229 740l35 130h115l-75 -130h-75z" />
    <glyph glyph-name="afii10062" unicode="&#x40e;" horiz-adv-x="495" 
d="M190 -10q-30 0 -58.5 6t-51.5 14v55h70q19 0 34 5.5t28 20.5t23.5 41.5t19.5 67.5q-60 0 -98 33.5t-52 86.5l-105 380h120l102 -370q6 -23 19 -36.5t29 -13.5l85 420h120l-110 -540q-34 -170 -175 -170zM245 830q30 0 55 15t40 30l50 -50q-23 -38 -59.5 -59t-85.5 -21
t-85.5 21t-59.5 59l50 50q15 -15 40 -30t55 -15z" />
    <glyph glyph-name="afii10145" unicode="&#x40f;" horiz-adv-x="560" 
d="M340 0l-20 -150h-80l-20 150h-150v700h120v-620h180v620h120v-700h-150z" />
    <glyph glyph-name="afii10017" unicode="&#x410;" horiz-adv-x="540" 
d="M184 175l-44 -175h-125l180 700h150l180 -700h-125l-44 175h-172zM272 540h-4l-68 -285h139z" />
    <glyph glyph-name="afii10018" unicode="&#x411;" horiz-adv-x="515" 
d="M190 430h55q124 0 179.5 -54.5t55.5 -170.5q0 -109 -55.5 -162t-179.5 -53q-57 0 -97 4.5t-78 15.5v690h375v-80h-255v-190zM190 350v-285h55q57 0 86 32.5t29 107.5q0 79 -29 112t-86 33h-55z" />
    <glyph glyph-name="afii10019" unicode="&#x412;" horiz-adv-x="530" 
d="M370 373q60 -21 92.5 -68t32.5 -115q0 -98 -57.5 -149t-192.5 -51q-57 0 -97 4.5t-78 15.5v680q38 11 78 15.5t97 4.5q113 0 166.5 -49t53.5 -136q0 -45 -25 -86t-70 -62v-4zM190 330v-265h55q64 0 94.5 31t30.5 99q0 72 -30.5 103.5t-94.5 31.5h-55zM235 405q49 0 77 29
t28 86t-28 86t-77 29h-45v-230h45z" />
    <glyph glyph-name="afii10020" unicode="&#x413;" horiz-adv-x="435" 
d="M70 700h345v-80h-225v-620h-120v700z" />
    <glyph glyph-name="afii10021" unicode="&#x414;" horiz-adv-x="580" 
d="M370 80v550h-123l-17 -355q-2 -51 -10 -87.5t-17 -60.5q-11 -28 -23 -47h190zM125 0q-4 -45 -14.5 -82.5t-25.5 -67.5h-75v230h50q12 19 23 47q9 24 17 60.5t10 87.5l20 425h360v-620h65v-230h-75q-15 30 -25.5 67.5t-14.5 82.5h-315z" />
    <glyph glyph-name="afii10022" unicode="&#x415;" 
d="M190 80h245v-80h-365v700h365v-80h-245v-215h215v-80h-215v-245z" />
    <glyph glyph-name="afii10024" unicode="&#x416;" horiz-adv-x="770" 
d="M210 367q-30 10 -51 36.5t-39 86.5l-30 100q-8 26 -24.5 40.5t-50.5 14.5v55l18 5q9 2 22 3.5t30 1.5q56 0 84 -30t46 -90l30 -100q14 -49 30 -67t35 -18h15v295h120v-295h15q19 0 35 18t30 67l30 100q18 60 46 90t84 30q17 0 30 -1.5t22 -3.5l18 -5v-55
q-34 0 -50.5 -14.5t-24.5 -40.5l-30 -100q-18 -60 -39 -86.5t-51 -36.5v-4q15 -5 30 -13.5t28.5 -23t24 -35.5t17.5 -51l30 -130q5 -23 23 -39t52 -16v-55q-7 -3 -18 -5q-20 -5 -52 -5q-57 0 -86.5 30t-43.5 90l-30 130q-11 49 -30 67t-45 18h-15v-325h-120v325h-15
q-26 0 -45 -18t-30 -67l-30 -130q-14 -60 -43.5 -90t-86.5 -30q-32 0 -52 5q-11 2 -18 5v55q34 0 52 16t23 39l30 130q7 30 17.5 51t24 35.5t28.5 23t30 13.5v4z" />
    <glyph glyph-name="afii10025" unicode="&#x417;" horiz-adv-x="450" 
d="M165 65q64 0 94.5 31t30.5 99t-30.5 99t-94.5 31h-80v80h70q115 0 115 125q0 49 -29 77t-86 28h-130v55q23 8 62.5 14t77.5 6q60 0 103.5 -12.5t71.5 -36t41.5 -57t13.5 -74.5q0 -64 -30 -100.5t-75 -57.5v-4q60 -17 92.5 -65t32.5 -108q0 -101 -57.5 -153t-192.5 -52
q-45 0 -86 6t-64 14v55h150z" />
    <glyph glyph-name="afii10026" unicode="&#x418;" horiz-adv-x="570" 
d="M190 0h-120v700h115v-460h5l185 460h125v-700h-115v470h-5z" />
    <glyph glyph-name="afii10027" unicode="&#x419;" horiz-adv-x="570" 
d="M285 840q30 0 55 15t40 30l50 -50q-23 -38 -59.5 -59t-85.5 -21t-85.5 21t-59.5 59l50 50q15 -15 40 -30t55 -15zM190 0h-120v700h115v-460h5l185 460h125v-700h-115v470h-5z" />
    <glyph glyph-name="afii10028" unicode="&#x41a;" horiz-adv-x="520" 
d="M310 363q15 -5 30 -13.5t28.5 -23t24 -35.5t17.5 -51l30 -130q5 -23 23 -39t52 -16v-55q-7 -3 -18 -5q-20 -5 -52 -5q-57 0 -86.5 30t-43.5 90l-30 130q-11 49 -30 67t-45 18h-20v-325h-120v700h120v-295h20q19 0 35 18t30 67l30 100q18 60 46 90t84 30q17 0 30 -1.5
t22 -3.5l18 -5v-55q-34 0 -50.5 -14.5t-24.5 -40.5l-30 -100q-18 -60 -39 -86.5t-51 -36.5v-4z" />
    <glyph glyph-name="afii10029" unicode="&#x41b;" horiz-adv-x="560" 
d="M70 -10q-32 0 -52 5q-11 2 -18 5v55q19 0 35 8t29 26.5t21 48t10 72.5l25 490h370v-700h-120v620h-134l-21 -410q-3 -60 -15 -102t-30.5 -68t-44 -38t-55.5 -12z" />
    <glyph glyph-name="afii10030" unicode="&#x41c;" horiz-adv-x="760" 
d="M220 700l158 -475h4l158 475h130l40 -700h-115l-27 474h-4l-129 -389h-110l-129 389h-4l-27 -474h-115l40 700h130z" />
    <glyph glyph-name="afii10031" unicode="&#x41d;" horiz-adv-x="560" 
d="M490 700v-700h-120v315h-180v-315h-120v700h120v-305h180v305h120z" />
    <glyph glyph-name="afii10032" unicode="&#x41e;" horiz-adv-x="550" 
d="M275 60q21 0 40.5 13t35 46t25 89t9.5 142t-9.5 142t-25 89t-35 46t-40.5 13t-40.5 -13t-35 -46t-25 -89t-9.5 -142t9.5 -142t25 -89t35 -46t40.5 -13zM275 710q52 0 94.5 -18.5t72.5 -60.5t46.5 -111t16.5 -170t-16.5 -170t-46.5 -111t-72.5 -60.5t-94.5 -18.5
q-53 0 -95.5 18.5t-72.5 60.5t-46 111t-16 170t16 170t46 111t72.5 60.5t95.5 18.5z" />
    <glyph glyph-name="afii10033" unicode="&#x41f;" horiz-adv-x="560" 
d="M490 700v-700h-120v620h-180v-620h-120v700h420z" />
    <glyph glyph-name="afii10034" unicode="&#x420;" horiz-adv-x="515" 
d="M245 280q28 0 49.5 8.5t36 29t22 55t7.5 87.5q0 51 -7.5 84.5t-22 53.5t-36 28.5t-49.5 8.5h-55v-355h55zM190 0h-120v690q38 11 78 15.5t97 4.5q62 0 106.5 -14t73 -44t42 -77.5t13.5 -114.5q0 -71 -13 -120.5t-39 -80.5t-64 -45t-89 -14q-6 0 -16.5 1t-22.5 2.5
l-24.5 3t-21.5 3.5v-210z" />
    <glyph glyph-name="afii10035" unicode="&#x421;" horiz-adv-x="455" 
d="M280 -10q-58 0 -102 17t-73.5 58t-44.5 110.5t-15 174.5t15 174.5t43.5 110.5t70.5 58t96 17q53 0 95 -6t65 -14v-55h-120q-32 0 -58.5 -13t-46 -45t-30 -87.5t-10.5 -139.5t11 -139.5t31 -87.5t48.5 -45t64.5 -13h120v-55q-23 -8 -65 -14t-95 -6z" />
    <glyph glyph-name="afii10036" unicode="&#x422;" horiz-adv-x="450" 
d="M10 700h430v-80h-155v-620h-120v620h-155v80z" />
    <glyph glyph-name="afii10037" unicode="&#x423;" horiz-adv-x="495" 
d="M190 -10q-30 0 -58.5 6t-51.5 14v55h70q19 0 34 5.5t28 20.5t23.5 41.5t19.5 67.5q-60 0 -98 33.5t-52 86.5l-105 380h120l102 -370q6 -23 19 -36.5t29 -13.5l85 420h120l-110 -540q-34 -170 -175 -170z" />
    <glyph glyph-name="afii10038" unicode="&#x424;" horiz-adv-x="710" 
d="M415 720v-65q62 -8 112 -31t85 -61.5t54 -92t19 -120.5q0 -68 -19 -121t-54 -91.5t-85 -62t-112 -30.5v-65h-120v65q-62 7 -112 30.5t-85 62t-54 91.5t-19 121q0 67 19 120.5t54 92t85 61.5t112 31v65h120zM565 350q0 54 -13.5 96t-35 71.5t-48.5 45t-53 17.5v-460
q26 2 53 17.5t48.5 45t35 71.5t13.5 96zM145 350q0 -54 13.5 -96t35 -71.5t48.5 -45t53 -17.5v460q-26 -2 -53 -17.5t-48.5 -45t-35 -71.5t-13.5 -96z" />
    <glyph glyph-name="afii10039" unicode="&#x425;" horiz-adv-x="500" 
d="M155 700l95 -260l95 260h125l-130 -340l145 -360h-125l-110 285l-110 -285h-125l145 360l-130 340h125z" />
    <glyph glyph-name="afii10040" unicode="&#x426;" horiz-adv-x="570" 
d="M70 0v700h120v-620h170v620h120v-620h65v-230h-75q-15 30 -25.5 67.5t-14.5 82.5h-360z" />
    <glyph glyph-name="afii10041" unicode="&#x427;" horiz-adv-x="535" 
d="M250 250q-98 0 -149 51.5t-51 153.5v245h120v-245q0 -125 120 -125h55v370h120v-700h-120v260q-19 -4 -47.5 -7t-47.5 -3z" />
    <glyph glyph-name="afii10042" unicode="&#x428;" horiz-adv-x="790" 
d="M455 80h145v620h120v-700h-650v700h120v-620h145v620h120v-620z" />
    <glyph glyph-name="afii10043" unicode="&#x429;" horiz-adv-x="810" 
d="M70 0v700h120v-620h145v620h120v-620h145v620h120v-620h65v-230h-75q-15 30 -25.5 67.5t-14.5 82.5h-600z" />
    <glyph glyph-name="afii10044" unicode="&#x42a;" horiz-adv-x="575" 
d="M335 430q102 0 153.5 -54t51.5 -171q0 -109 -55.5 -162t-179.5 -53q-57 0 -97 4.5t-78 15.5v610h-110v80h230v-280q9 2 21.5 3.5l24.5 3t22.5 2.5t16.5 1zM250 350v-285h55q57 0 86 32.5t29 107.5q0 41 -7.5 69t-22 45t-36 24t-49.5 7h-55z" />
    <glyph glyph-name="afii10045" unicode="&#x42b;" horiz-adv-x="735" 
d="M665 700v-700h-120v700h120zM190 350v-285h55q53 0 81.5 32.5t28.5 107.5q0 41 -7.5 69t-21.5 45t-34.5 24t-46.5 7h-55zM275 430q98 0 149 -54t51 -171q0 -109 -54.5 -162t-175.5 -53q-57 0 -97 4.5t-78 15.5v690h120v-280q9 2 21.5 3.5l24.5 3t22.5 2.5t16.5 1z" />
    <glyph glyph-name="afii10046" unicode="&#x42c;" horiz-adv-x="515" 
d="M190 350v-285h55q57 0 86 32.5t29 107.5q0 41 -7.5 69t-22 45t-36 24t-49.5 7h-55zM275 430q102 0 153.5 -54t51.5 -171q0 -109 -55.5 -162t-179.5 -53q-57 0 -97 4.5t-78 15.5v690h120v-280q9 2 21.5 3.5l24.5 3t22.5 2.5t16.5 1z" />
    <glyph glyph-name="afii10047" unicode="&#x42d;" horiz-adv-x="455" 
d="M85 400h204q-3 69 -15 114.5t-30.5 72.5t-43.5 37.5t-55 10.5h-120v55q23 8 65 14t95 6q54 0 96 -17t70.5 -58t43.5 -110.5t15 -174.5t-15 -174.5t-44.5 -110.5t-73.5 -58t-102 -17q-53 0 -95 6t-65 14v55h120q34 0 61.5 11.5t47.5 41t31.5 78.5t13.5 124h-204v80z" />
    <glyph glyph-name="afii10048" unicode="&#x42e;" horiz-adv-x="745" 
d="M475 710q51 0 92.5 -18.5t71 -60.5t45.5 -111t16 -170t-16 -170t-45.5 -111t-71 -60.5t-92.5 -18.5q-49 0 -88.5 16.5t-69 54.5t-46.5 100t-21 154h-60v-315h-120v700h120v-305h61q3 88 21 148.5t47.5 97.5t69 53t86.5 16zM475 640q-19 0 -37.5 -13t-33.5 -46t-24.5 -89
t-9.5 -142t9.5 -142t24.5 -89t33.5 -46t37.5 -13t37.5 13t33.5 46t24.5 89t9.5 142t-9.5 142t-24.5 89t-33.5 46t-37.5 13z" />
    <glyph glyph-name="afii10049" unicode="&#x42f;" horiz-adv-x="525" 
d="M335 360v275h-55q-57 0 -86 -31.5t-29 -103.5q0 -75 29 -107.5t86 -32.5h55zM185 310q-21 4 -45.5 17t-45.5 36.5t-35 57.5t-14 79q0 105 55.5 157.5t179.5 52.5q57 0 97 -4.5t78 -15.5v-690h-120v280h-25q-8 0 -17.5 -4t-20 -14t-20.5 -26.5t-17 -40.5l-25 -85
q-17 -60 -47 -90t-83 -30q-30 0 -50 5q-11 2 -20 5v55q30 0 48 12.5t27 42.5l25 85q14 49 35 76t40 35v4z" />
    <glyph glyph-name="afii10065" unicode="&#x430;" 
d="M290 240h-55q-13 0 -26.5 -4t-24 -14.5t-17.5 -28t-7 -43.5t7 -43.5t17.5 -28t24 -14.5t26.5 -4q19 0 33 6t22 14v160zM195 -10q-32 0 -60 6.5t-49 24.5t-33.5 49t-12.5 80t12.5 80t34.5 49t52 24.5t66 6.5q23 0 44.5 -3t40.5 -7v40q0 60 -28 80t-77 20h-100v50
q23 8 56.5 14t63.5 6q51 0 89 -7t64 -25.5t39 -52t13 -85.5v-340h-85l-15 30h-5q-16 -15 -42 -27.5t-68 -12.5z" />
    <glyph glyph-name="afii10066" unicode="&#x431;" horiz-adv-x="495" 
d="M170 455q15 11 37.5 18t52.5 7q90 0 140 -57t50 -188t-51.5 -188t-148.5 -57q-98 0 -149 57t-51 188v165q0 84 14 141.5t45.5 92.5t82 51.5t123.5 19.5l120 5l5 -50q-26 -11 -62 -20.5t-78 -14.5q-34 -4 -58.5 -14t-40.5 -29.5t-23.5 -50.5t-7.5 -76zM170 235
q0 -53 7 -87.5t18 -55t25.5 -29t29.5 -8.5t29.5 8.5t25.5 29t18 55t7 87.5q0 51 -7 84.5t-20.5 53.5t-32 28.5t-40.5 8.5q-23 0 -37.5 -6t-22.5 -14v-155z" />
    <glyph glyph-name="afii10067" unicode="&#x432;" horiz-adv-x="490" 
d="M245 60q17 0 32.5 4t27 14t18.5 26.5t7 40.5q0 45 -25.5 62.5t-59.5 17.5h-60v-165h60zM185 440v-145h50q14 0 27.5 4t24 12.5t17 21.5t6.5 32q0 21 -7 35t-17.5 23t-24 13t-26.5 4h-50zM65 490q38 11 77.5 15.5t92.5 4.5q49 0 86 -6.5t62.5 -22.5t38.5 -43t13 -68
q0 -24 -7.5 -41.5t-19.5 -29.5t-26 -19.5t-27 -12.5v-4q17 -5 34.5 -14t32 -24t24 -36t9.5 -49q0 -45 -13 -74t-39.5 -46t-66 -23.5t-91.5 -6.5q-60 0 -101 4.5t-79 15.5v480z" />
    <glyph glyph-name="afii10068" unicode="&#x433;" horiz-adv-x="390" 
d="M380 500v-75h-195v-425h-120v500h315z" />
    <glyph glyph-name="afii10069" unicode="&#x434;" horiz-adv-x="530" 
d="M505 75v-220h-75q-15 26 -25.5 63t-14.5 82h-265q-4 -45 -14.5 -82t-25.5 -63h-75v220h45q15 19 28.5 50.5t16.5 84.5l15 290h330v-425h60zM231 425l-11 -215q-3 -53 -16.5 -84.5t-28.5 -50.5h150v350h-94z" />
    <glyph glyph-name="afii10070" unicode="&#x435;" horiz-adv-x="460" 
d="M420 215h-260q0 -86 30.5 -120.5t94.5 -34.5h110v-50q-23 -8 -57.5 -14t-72.5 -6q-58 0 -100.5 14t-70 45t-41 80.5t-13.5 120.5t13 120.5t37 80.5t59.5 45t80.5 14t80.5 -14t59.5 -45t37 -80.5t13 -120.5v-35zM300 285q0 49 -5.5 80t-14.5 49t-22 24.5t-28 6.5t-28 -6.5
t-22 -24.5t-14.5 -49t-5.5 -80h140z" />
    <glyph glyph-name="afii10072" unicode="&#x436;" horiz-adv-x="670" 
d="M395 500v-200h5q11 0 21 10.5t24 44.5l30 75q15 38 40 59t70 21q13 0 25 -1.5t21 -3.5q11 -3 19 -5v-50q-26 0 -38 -9.5t-17 -20.5l-25 -65q-16 -42 -34.5 -62t-41.5 -26v-4q27 -6 51 -27t35 -66l20 -80q4 -15 19 -27.5t41 -12.5v-50q-8 -3 -19 -5q-20 -5 -46 -5
q-49 0 -77 23.5t-38 61.5l-25 95q-7 26 -21.5 40.5t-33.5 14.5h-5v-225h-120v225h-5q-19 0 -33.5 -14.5t-21.5 -40.5l-25 -95q-10 -38 -38 -61.5t-77 -23.5q-26 0 -46 5q-11 2 -19 5v50q26 0 41 12.5t19 27.5l20 80q11 45 35 66t51 27v4q-23 6 -41.5 26t-34.5 62l-25 65
q-5 11 -17 20.5t-38 9.5v50q8 2 19 5q9 2 20.5 3.5t25.5 1.5q45 0 70 -21t40 -59l30 -75q14 -34 24 -44.5t21 -10.5h5v200h120z" />
    <glyph glyph-name="afii10073" unicode="&#x437;" horiz-adv-x="405" 
d="M370 140q0 -45 -13.5 -74t-41 -46t-70 -23.5t-100.5 -6.5q-38 0 -72.5 6t-57.5 14v50h130q45 0 72.5 18t27.5 67q0 45 -25 62.5t-55 17.5h-85v70h75q30 0 55 17t25 58q0 38 -27.5 54t-72.5 16h-110v50q23 8 57.5 14t72.5 6q51 0 89 -6.5t64 -22t39 -41.5t13 -65
q0 -26 -7.5 -44.5t-20.5 -31t-29 -20t-33 -12.5v-4q17 -5 34.5 -14t32 -24t24 -36t9.5 -49z" />
    <glyph glyph-name="afii10074" unicode="&#x438;" horiz-adv-x="510" 
d="M330 315h-5l-140 -315h-120v500h115v-305h5l130 305h130v-500h-115v315z" />
    <glyph glyph-name="afii10075" unicode="&#x439;" horiz-adv-x="510" 
d="M250 640q30 0 52.5 12.5t37.5 27.5l50 -50q-23 -34 -57 -54.5t-83 -20.5t-83 20.5t-57 54.5l50 50q15 -15 37.5 -27.5t52.5 -12.5zM330 315h-5l-140 -315h-120v500h115v-305h5l130 305h130v-500h-115v315z" />
    <glyph glyph-name="afii10076" unicode="&#x43a;" horiz-adv-x="470" 
d="M294 263q27 -6 51 -27t35 -66l20 -80q4 -15 19 -27.5t41 -12.5v-50q-8 -3 -19 -5q-20 -5 -46 -5q-49 0 -77 23.5t-38 61.5l-25 95q-7 26 -21.5 40.5t-33.5 14.5h-15v-225h-120v500h120v-200h15q11 0 21 10.5t24 44.5l30 75q15 38 40 59t70 21q13 0 25 -1.5t21 -3.5
q11 -3 19 -5v-50q-26 0 -38 -9.5t-17 -20.5l-25 -65q-16 -42 -34.5 -62t-41.5 -26v-4z" />
    <glyph glyph-name="afii10077" unicode="&#x43b;" horiz-adv-x="500" 
d="M435 500v-500h-120v425h-104l-16 -265q-5 -86 -41.5 -128t-88.5 -42q-26 0 -45 5t-20 5v50q26 0 48.5 25t26.5 85l20 340h340z" />
    <glyph glyph-name="afii10078" unicode="&#x43c;" horiz-adv-x="660" 
d="M280 75l-89 240h-4l-22 -315h-115l35 500h130l113 -305h4l113 305h130l35 -500h-115l-22 315h-4l-89 -240h-100z" />
    <glyph glyph-name="afii10079" unicode="&#x43d;" horiz-adv-x="505" 
d="M185 0h-120v500h120v-210h135v210h120v-500h-120v215h-135v-215z" />
    <glyph glyph-name="afii10080" unicode="&#x43e;" horiz-adv-x="480" 
d="M240 445q-17 0 -31.5 -8.5t-25.5 -30.5t-17 -60t-6 -96t6 -96t17 -60t25.5 -30.5t31.5 -8.5t31.5 8.5t25.5 30.5t17 60t6 96t-6 96t-17 60t-25.5 30.5t-31.5 8.5zM240 510q49 0 86 -14t62.5 -45t38.5 -80.5t13 -120.5t-13 -120.5t-38.5 -80.5t-62.5 -45t-86 -14t-86 14
t-62.5 45t-38.5 80.5t-13 120.5t13 120.5t38.5 80.5t62.5 45t86 14z" />
    <glyph glyph-name="afii10081" unicode="&#x43f;" horiz-adv-x="505" 
d="M185 0h-120v500h375v-500h-120v425h-135v-425z" />
    <glyph glyph-name="afii10082" unicode="&#x440;" horiz-adv-x="490" 
d="M185 80q8 -8 22 -14t33 -6t35.5 8.5t28.5 30t19 58.5t7 93t-7 93t-19 58.5t-28.5 30t-35.5 8.5t-31.5 -6t-23.5 -14v-340zM280 510q37 0 68.5 -14t54 -45t35 -80.5t12.5 -120.5t-12.5 -120.5t-36 -80.5t-57 -45t-74.5 -14q-26 0 -47.5 7t-37.5 18v-215h-120v700h85
l15 -30h5q16 15 42 27.5t68 12.5z" />
    <glyph glyph-name="afii10083" unicode="&#x441;" horiz-adv-x="395" 
d="M260 440q-23 0 -41 -8.5t-31.5 -30t-20.5 -58.5t-7 -93t7.5 -93t21.5 -58.5t34.5 -30t46.5 -8.5h110v-50q-23 -8 -57.5 -14t-72.5 -6q-53 0 -92 14t-65.5 45t-39.5 80.5t-13 120.5t13 120.5t38.5 80.5t62.5 45t86 14q38 0 72.5 -6t57.5 -14v-50h-110z" />
    <glyph glyph-name="afii10084" unicode="&#x442;" horiz-adv-x="390" 
d="M380 500v-75h-125v-425h-120v425h-125v75h370z" />
    <glyph glyph-name="afii10085" unicode="&#x443;" 
d="M330 500h115l-95 -510q-20 -106 -64 -153t-116 -47q-30 0 -55.5 6t-44.5 14v50h65q19 0 34 5.5t27 20t21.5 40t17.5 64.5q-45 0 -79 33.5t-46 86.5l-90 390h115l90 -390q3 -13 7 -20t8 -10q4 -4 10 -5z" />
    <glyph glyph-name="afii10086" unicode="&#x444;" horiz-adv-x="620" 
d="M370 65q21 4 38 14.5t30 31.5t20 54.5t7 84.5t-7 84.5t-20 54.5t-30 31.5t-38 14.5v-370zM370 700v-195q101 -11 158 -73t57 -182t-57 -182t-158 -73v-195h-120v195q-101 11 -158 73t-57 182t57 182t158 73v195h120zM250 435q-21 -4 -38 -14.5t-30 -31.5t-20 -54.5
t-7 -84.5t7 -84.5t20 -54.5t30 -31.5t38 -14.5v370z" />
    <glyph glyph-name="afii10087" unicode="&#x445;" horiz-adv-x="440" 
d="M295 500h125l-115 -245l120 -255h-125l-80 185l-80 -185h-125l120 255l-115 245h125l75 -175z" />
    <glyph glyph-name="afii10088" unicode="&#x446;" horiz-adv-x="520" 
d="M65 0v500h120v-425h130v425h120v-425h60v-220h-75q-15 26 -25.5 63t-14.5 82h-315z" />
    <glyph glyph-name="afii10089" unicode="&#x447;" horiz-adv-x="480" 
d="M40 500h120v-175q0 -24 7 -40.5t18.5 -26.5t27 -14t32.5 -4h50v260h120v-500h-120v180q-19 -4 -46.5 -7t-53.5 -3q-32 0 -60 6.5t-49 24t-33.5 47.5t-12.5 77v175z" />
    <glyph glyph-name="afii10090" unicode="&#x448;" horiz-adv-x="710" 
d="M65 0v500h120v-425h110v425h120v-425h110v425h120v-500h-580z" />
    <glyph glyph-name="afii10091" unicode="&#x449;" horiz-adv-x="730" 
d="M65 0v500h120v-425h110v425h120v-425h110v425h120v-425h60v-220h-75q-15 26 -25.5 63t-14.5 82h-525z" />
    <glyph glyph-name="afii10092" unicode="&#x44a;" horiz-adv-x="530" 
d="M240 310q19 4 42.5 7t42.5 3q37 0 68.5 -7t54 -25t35 -50t12.5 -83t-13 -83t-38.5 -50t-62.5 -25t-86 -7q-57 0 -97 4.5t-78 15.5v415h-100v75h220v-190zM295 60q15 0 29.5 4.5t25.5 15t18 29t7 46.5q0 26 -7 43.5t-18 28t-25.5 14.5t-29.5 4h-55v-185h55z" />
    <glyph glyph-name="afii10093" unicode="&#x44b;" horiz-adv-x="675" 
d="M610 500v-500h-120v500h120zM185 310q19 4 42.5 7t42.5 3q36 0 66 -7t52 -25t34.5 -50t12.5 -83t-13 -83t-37.5 -50t-61 -25t-83.5 -7q-57 0 -97 4.5t-78 15.5v490h120v-190zM240 60q13 0 26.5 4.5t24 15t17.5 29t7 46.5q0 26 -7 43.5t-17.5 28t-24 14.5t-26.5 4h-55
v-185h55z" />
    <glyph glyph-name="afii10094" unicode="&#x44c;" 
d="M185 310q19 4 42.5 7t42.5 3q37 0 68.5 -7t54 -25t35 -50t12.5 -83t-13 -83t-38.5 -50t-62.5 -25t-86 -7q-57 0 -97 4.5t-78 15.5v490h120v-190zM240 60q15 0 29.5 4.5t25.5 15t18 29t7 46.5q0 26 -7 43.5t-18 28t-25.5 14.5t-29.5 4h-55v-185h55z" />
    <glyph glyph-name="afii10095" unicode="&#x44d;" horiz-adv-x="395" 
d="M85 220v75h150q-4 82 -29.5 113.5t-70.5 31.5h-110v50q23 8 57.5 14t72.5 6q49 0 86 -14t62.5 -45t38.5 -80.5t13 -120.5t-13 -120.5t-39.5 -80.5t-66 -45t-91.5 -14q-38 0 -72.5 6t-57.5 14v50h110q26 0 46 7.5t33.5 25.5t21 49t9.5 78h-150z" />
    <glyph glyph-name="afii10096" unicode="&#x44e;" horiz-adv-x="665" 
d="M430 510q47 0 83.5 -14t61 -45t37.5 -80.5t13 -120.5t-13 -120.5t-37.5 -80.5t-61 -45t-83.5 -14q-88 0 -138 51t-56 174h-51v-215h-120v500h120v-205h51q8 117 58 166t136 49zM430 445q-15 0 -28.5 -8.5t-24 -30.5t-16.5 -60t-6 -96t6 -96t16.5 -60t24 -30.5t28.5 -8.5
t28.5 8.5t24 30.5t16.5 60t6 96t-6 96t-16.5 60t-24 30.5t-28.5 8.5z" />
    <glyph glyph-name="afii10097" unicode="&#x44f;" horiz-adv-x="470" 
d="M230 440q-15 0 -29.5 -4t-25.5 -14.5t-18 -28t-7 -43.5q0 -24 7 -40.5t18 -26.5t25.5 -14t29.5 -4h55v175h-55zM156 217q-25 1 -47.5 10t-40 25.5t-28 41t-10.5 56.5q0 49 14.5 80t40.5 49t63 24.5t82 6.5q57 0 97 -4.5t78 -15.5v-490h-120v190h-19q-38 0 -56 -45
l-30 -75q-15 -38 -39 -59t-66 -21q-26 0 -46 5q-11 2 -19 5v50q26 0 38 9.5t17 20.5l25 65q13 34 28 48t38 20v4z" />
    <glyph glyph-name="afii10071" unicode="&#x451;" horiz-adv-x="460" 
d="M420 215h-260q0 -86 30.5 -120.5t94.5 -34.5h110v-50q-23 -8 -57.5 -14t-72.5 -6q-58 0 -100.5 14t-70 45t-41 80.5t-13.5 120.5t13 120.5t37 80.5t59.5 45t80.5 14t80.5 -14t59.5 -45t37 -80.5t13 -120.5v-35zM300 285q0 49 -5.5 80t-14.5 49t-22 24.5t-28 6.5t-28 -6.5
t-22 -24.5t-14.5 -49t-5.5 -80h140zM205 680v-120h-110v120h110zM365 680v-120h-110v120h110z" />
    <glyph glyph-name="afii10099" unicode="&#x452;" horiz-adv-x="500" 
d="M195 450q19 15 44.5 22.5t55.5 7.5q32 0 60 -6.5t49 -24.5t33.5 -49t12.5 -80v-170q0 -83 -36 -121.5t-104 -38.5q-26 0 -43 4.5t-32 15.5v50h50q9 0 17.5 4t14.5 14.5t9.5 28t3.5 43.5v170q0 26 -7 43.5t-18 28t-25.5 14.5t-29.5 4q-19 0 -33 -6t-22 -14v-390h-120v536
h-55v74h55v90h120v-90h135v-54q-11 -4 -25.5 -7.5t-30 -6.5t-31 -4.5t-28.5 -1.5h-20v-86z" />
    <glyph glyph-name="afii10100" unicode="&#x453;" horiz-adv-x="390" 
d="M380 500v-75h-195v-425h-120v500h315zM180 560l35 130h115l-75 -130h-75z" />
    <glyph glyph-name="afii10101" unicode="&#x454;" horiz-adv-x="395" 
d="M160 220q2 -47 9.5 -78t21 -49t33.5 -25.5t46 -7.5h110v-50q-23 -8 -57.5 -14t-72.5 -6q-53 0 -92 14t-65.5 45t-39.5 80.5t-13 120.5t13 120.5t38.5 80.5t62.5 45t86 14q38 0 72.5 -6t57.5 -14v-50h-110q-45 0 -70.5 -31.5t-29.5 -113.5h150v-75h-150z" />
    <glyph glyph-name="afii10102" unicode="&#x455;" horiz-adv-x="415" 
d="M150 380q0 -26 17.5 -42.5t43.5 -29t56.5 -24.5t56.5 -29.5t43.5 -45t17.5 -69.5q0 -45 -13 -74t-40 -46t-67.5 -23.5t-94.5 -6.5q-38 0 -72.5 6t-57.5 14v50h110q57 0 86 16t29 54q0 26 -17.5 42.5t-43.5 29t-56.5 24.5t-56.5 29.5t-43.5 44.5t-17.5 70q0 41 13 68
t37.5 43t61 22.5t83.5 6.5q38 0 72.5 -6t57.5 -14v-50h-110q-42 0 -68.5 -15t-26.5 -45z" />
    <glyph glyph-name="afii10103" unicode="&#x456;" horiz-adv-x="250" 
d="M185 0h-120v500h120v-500zM185 680v-120h-120v120h120z" />
    <glyph glyph-name="afii10104" unicode="&#x457;" horiz-adv-x="240" 
d="M180 0h-120v500h120v-500zM95 680v-120h-110v120h110zM255 680v-120h-110v120h110z" />
    <glyph glyph-name="afii10105" unicode="&#x458;" horiz-adv-x="265" 
d="M195 -40q0 -53 -12.5 -86t-33.5 -51.5t-49 -25.5t-60 -7q-30 0 -55.5 6t-44.5 14v50h70q26 0 45.5 23.5t19.5 76.5v540h120v-540zM195 680v-120h-120v120h120z" />
    <glyph glyph-name="afii10106" unicode="&#x459;" horiz-adv-x="720" 
d="M430 310q19 4 42.5 7t42.5 3q37 0 68.5 -7t54 -25t35 -50t12.5 -83t-13 -83t-38.5 -50t-62.5 -25t-86 -7q-57 0 -97 4.5t-78 15.5v415h-99l-16 -265q-5 -86 -41.5 -128t-88.5 -42q-26 0 -45 5t-20 5v50q26 0 48.5 25t26.5 85l20 340h335v-190zM485 60q15 0 29.5 4.5
t25.5 15t18 29t7 46.5q0 26 -7 43.5t-18 28t-25.5 14.5t-29.5 4h-55v-185h55z" />
    <glyph glyph-name="afii10107" unicode="&#x45a;" horiz-adv-x="730" 
d="M185 0h-120v500h120v-195h135v195h120v-205q19 4 42.5 7t42.5 3q37 0 68.5 -6.5t54 -24.5t35 -49t12.5 -80q0 -47 -13 -77t-38.5 -47.5t-62.5 -24t-86 -6.5q-57 0 -97 4.5t-78 15.5v220h-135v-230zM495 60q15 0 29.5 4t25.5 14t18 26.5t7 40.5t-7 40.5t-18 26.5t-25.5 14
t-29.5 4h-55v-170h55z" />
    <glyph glyph-name="afii10108" unicode="&#x45b;" horiz-adv-x="515" 
d="M195 450q19 15 44.5 22.5t55.5 7.5q32 0 60 -6.5t49 -24.5t33.5 -49t12.5 -80v-320h-120v320q0 26 -7 43.5t-18 28t-25.5 14.5t-29.5 4q-19 0 -33 -6t-22 -14v-390h-120v536h-55v74h55v90h120v-90h135v-54q-11 -4 -25.5 -7.5t-30 -6.5t-31 -4.5t-28.5 -1.5h-20v-86z" />
    <glyph glyph-name="afii10109" unicode="&#x45c;" horiz-adv-x="470" 
d="M294 263q27 -6 51 -27t35 -66l20 -80q4 -15 19 -27.5t41 -12.5v-50q-8 -3 -19 -5q-20 -5 -46 -5q-49 0 -77 23.5t-38 61.5l-25 95q-7 26 -21.5 40.5t-33.5 14.5h-15v-225h-120v500h120v-200h15q11 0 21 10.5t24 44.5l30 75q15 38 40 59t70 21q13 0 25 -1.5t21 -3.5
q11 -3 19 -5v-50q-26 0 -38 -9.5t-17 -20.5l-25 -65q-16 -42 -34.5 -62t-41.5 -26v-4zM200 560l35 130h115l-75 -130h-75z" />
    <glyph glyph-name="afii10110" unicode="&#x45e;" 
d="M330 500h115l-95 -510q-20 -106 -64 -153t-116 -47q-30 0 -55.5 6t-44.5 14v50h65q19 0 34 5.5t27 20t21.5 40t17.5 64.5q-45 0 -79 33.5t-46 86.5l-90 390h115l90 -390q3 -13 7 -20t8 -10q4 -4 10 -5zM240 640q30 0 52.5 12.5t37.5 27.5l50 -50q-23 -34 -57 -54.5
t-83 -20.5t-83 20.5t-57 54.5l50 50q15 -15 37.5 -27.5t52.5 -12.5z" />
    <glyph glyph-name="afii10193" unicode="&#x45f;" horiz-adv-x="505" 
d="M212 -140l-20 140h-127v500h120v-425h135v425h120v-500h-128l-20 -140h-80z" />
    <glyph glyph-name="afii10050" unicode="&#x490;" horiz-adv-x="435" 
d="M190 620v-620h-120v700h250l15 90h80v-170h-225z" />
    <glyph glyph-name="afii10098" unicode="&#x491;" horiz-adv-x="390" 
d="M185 425v-425h-120v500h220l15 95h80v-170h-195z" />
    <glyph glyph-name="endash" unicode="&#x2013;" horiz-adv-x="480" 
d="M30 320h420v-80h-420v80z" />
    <glyph glyph-name="emdash" unicode="&#x2014;" horiz-adv-x="660" 
d="M30 320h600v-80h-600v80z" />
    <glyph glyph-name="quoteleft" unicode="&#x2018;" horiz-adv-x="195" 
d="M160 475h-120l40 230h80v-230z" />
    <glyph glyph-name="quoteright" unicode="&#x2019;" horiz-adv-x="195" 
d="M40 705h120l-40 -230h-80v230z" />
    <glyph glyph-name="quotesinglbase" unicode="&#x201a;" horiz-adv-x="195" 
d="M40 110h120l-40 -230h-80v230z" />
    <glyph glyph-name="quotedblleft" unicode="&#x201c;" horiz-adv-x="365" 
d="M325 475h-120l40 230h80v-230zM155 475h-120l40 230h80v-230z" />
    <glyph glyph-name="quotedblright" unicode="&#x201d;" horiz-adv-x="365" 
d="M40 705h120l-40 -230h-80v230zM210 705h120l-40 -230h-80v230z" />
    <glyph glyph-name="quotedblbase" unicode="&#x201e;" horiz-adv-x="365" 
d="M40 110h120l-40 -230h-80v230zM210 110h120l-40 -230h-80v230z" />
    <glyph glyph-name="dagger" unicode="&#x2020;" horiz-adv-x="470" 
d="M295 -200h-120v585h-155v80h155v235h120v-235h155v-80h-155v-585z" />
    <glyph glyph-name="daggerdbl" unicode="&#x2021;" horiz-adv-x="470" 
d="M295 465h155v-80h-155v-270h155v-80h-155v-235h-120v235h-155v80h155v270h-155v80h155v235h120v-235z" />
    <glyph glyph-name="bullet" unicode="&#x2022;" horiz-adv-x="270" 
d="M225 260h-180v179h180v-179z" />
    <glyph glyph-name="ellipsis" unicode="&#x2026;" horiz-adv-x="590" 
d="M160 110v-120h-120v120h120zM355 110v-120h-120v120h120zM550 110v-120h-120v120h120z" />
    <glyph glyph-name="perthousand" unicode="&#x2030;" horiz-adv-x="1050" 
d="M615 700l-390 -700h-120l390 700h120zM180 640q-23 0 -39 -19t-16 -61t16 -61t39 -19t39 19t16 61t-16 61t-39 19zM180 710q72 0 113.5 -41t41.5 -109t-41.5 -109t-113.5 -41t-113.5 41t-41.5 109t41.5 109t113.5 41zM540 220q-23 0 -39 -19t-16 -61t16 -61t39 -19t39 19
t16 61t-16 61t-39 19zM540 290q72 0 113.5 -41t41.5 -109t-41.5 -109t-113.5 -41t-113.5 41t-41.5 109t41.5 109t113.5 41zM870 220q-23 0 -39 -19t-16 -61t16 -61t39 -19t39 19t16 61t-16 61t-39 19zM870 290q72 0 113.5 -41t41.5 -109t-41.5 -109t-113.5 -41t-113.5 41
t-41.5 109t41.5 109t113.5 41z" />
    <glyph glyph-name="guilsinglleft" unicode="&#x2039;" horiz-adv-x="325" 
d="M150 247l145 -192l-85 -55l-190 250l190 250l85 -55l-145 -192v-6z" />
    <glyph glyph-name="guilsinglright" unicode="&#x203a;" horiz-adv-x="325" 
d="M175 253l-145 192l85 55l190 -250l-190 -250l-85 55l145 192v6z" />
    <glyph glyph-name="Euro" unicode="&#x20ac;" horiz-adv-x="480" 
d="M305 -10q-50 0 -89.5 12t-68 41t-47 77t-25.5 120h-65l10 75h50v70h-60l10 75h55q7 72 25 120t45.5 77t65 41t84.5 12q53 0 95 -6t65 -14v-55h-120q-26 0 -48.5 -8.5t-40.5 -28.5t-30.5 -53.5t-19.5 -84.5h199l-15 -75h-190v-70h175l-15 -75h-154q7 -51 20 -84.5t32 -54
t43.5 -28.5t53.5 -8h120v-55q-23 -8 -65 -14t-95 -6z" />
    <glyph glyph-name="afii61352" unicode="&#x2116;" horiz-adv-x="885" 
d="M190 460h-5v-460h-115v700h120l190 -460h5v460h115v-700h-120zM700 710q72 0 113.5 -41t41.5 -109t-41.5 -109t-113.5 -41t-113.5 41t-41.5 109t41.5 109t113.5 41zM570 360h260v-80h-260v80zM700 640q-23 0 -39 -19t-16 -61t16 -61t39 -19t39 19t16 61t-16 61t-39 19z
" />
    <glyph glyph-name="trademark" unicode="&#x2122;" horiz-adv-x="695" 
d="M395 700l80 -176l80 176h90l20 -300h-85l-10 175l-60 -135h-70l-60 135l-10 -175h-85l20 300h90zM265 700v-60h-85v-240h-85v240h-85v60h255z" />
    </font>
</defs>
</svg>
